<?xml version="1.0" encoding="utf-8" standalone="no"?>
<!DOCTYPE svg PUBLIC "-//W3C//DTD SVG 1.1//EN"
  "http://www.w3.org/Graphics/SVG/1.1/DTD/svg11.dtd">
<svg height="648pt" version="1.1" viewBox="0 0 1152 648" width="1152pt" xmlns="http://www.w3.org/2000/svg" xmlns:xlink="http://www.w3.org/1999/xlink">
 <metadata>
  <rdf:RDF xmlns:cc="http://creativecommons.org/ns#" xmlns:dc="http://purl.org/dc/elements/1.1/" xmlns:rdf="http://www.w3.org/1999/02/22-rdf-syntax-ns#">
   <cc:Work>
    <dc:type rdf:resource="http://purl.org/dc/dcmitype/StillImage"/>
    <dc:date>2021-10-26T16:58:23.229296</dc:date>
    <dc:format>image/svg+xml</dc:format>
    <dc:creator>
     <cc:Agent>
      <dc:title>Matplotlib v3.4.3, https://matplotlib.org/</dc:title>
     </cc:Agent>
    </dc:creator>
   </cc:Work>
  </rdf:RDF>
 </metadata>
 <defs>
  <style type="text/css">*{stroke-linecap:butt;stroke-linejoin:round;}</style>
 </defs>
 <g id="figure_1">
  <g id="patch_1">
   <path d="M 0 648 
L 1152 648 
L 1152 0 
L 0 0 
z
" style="fill:#ffffff;"/>
  </g>
  <g id="axes_1">
   <g id="patch_2">
    <path d="M 144 567 
L 1036.8 567 
L 1036.8 77.76 
L 144 77.76 
z
" style="fill:#eaeaf2;"/>
   </g>
   <g id="matplotlib.axis_1">
    <g id="xtick_1">
     <g id="line2d_1">
      <path clip-path="url(#pc71eb00660)" d="M 144 567 
L 144 77.76 
" style="fill:none;stroke:#ffffff;stroke-linecap:round;"/>
     </g>
     <g id="line2d_2">
      <defs>
       <path d="M 0 0 
L 0 5 
" id="mc734cebcea" style="stroke:#262626;"/>
      </defs>
      <g>
       <use style="fill:#262626;stroke:#262626;" x="144" xlink:href="#mc734cebcea" y="567"/>
      </g>
     </g>
     <g id="text_1">
      <!-- 2012 -->
      <g style="fill:#262626;" transform="translate(146.843672 599.968125)rotate(-90)scale(0.11 -0.11)">
       <defs>
        <path d="M 3222 541 
L 3222 0 
L 194 0 
Q 188 203 259 391 
Q 375 700 629 1000 
Q 884 1300 1366 1694 
Q 2113 2306 2375 2664 
Q 2638 3022 2638 3341 
Q 2638 3675 2398 3904 
Q 2159 4134 1775 4134 
Q 1369 4134 1125 3890 
Q 881 3647 878 3216 
L 300 3275 
Q 359 3922 746 4261 
Q 1134 4600 1788 4600 
Q 2447 4600 2831 4234 
Q 3216 3869 3216 3328 
Q 3216 3053 3103 2787 
Q 2991 2522 2730 2228 
Q 2469 1934 1863 1422 
Q 1356 997 1212 845 
Q 1069 694 975 541 
L 3222 541 
z
" id="ArialMT-32" transform="scale(0.015625)"/>
        <path d="M 266 2259 
Q 266 3072 433 3567 
Q 600 4063 929 4331 
Q 1259 4600 1759 4600 
Q 2128 4600 2406 4451 
Q 2684 4303 2865 4023 
Q 3047 3744 3150 3342 
Q 3253 2941 3253 2259 
Q 3253 1453 3087 958 
Q 2922 463 2592 192 
Q 2263 -78 1759 -78 
Q 1097 -78 719 397 
Q 266 969 266 2259 
z
M 844 2259 
Q 844 1131 1108 757 
Q 1372 384 1759 384 
Q 2147 384 2411 759 
Q 2675 1134 2675 2259 
Q 2675 3391 2411 3762 
Q 2147 4134 1753 4134 
Q 1366 4134 1134 3806 
Q 844 3388 844 2259 
z
" id="ArialMT-30" transform="scale(0.015625)"/>
        <path d="M 2384 0 
L 1822 0 
L 1822 3584 
Q 1619 3391 1289 3197 
Q 959 3003 697 2906 
L 697 3450 
Q 1169 3672 1522 3987 
Q 1875 4303 2022 4600 
L 2384 4600 
L 2384 0 
z
" id="ArialMT-31" transform="scale(0.015625)"/>
       </defs>
       <use xlink:href="#ArialMT-32"/>
       <use x="55.615234" xlink:href="#ArialMT-30"/>
       <use x="111.230469" xlink:href="#ArialMT-31"/>
       <use x="166.845703" xlink:href="#ArialMT-32"/>
      </g>
     </g>
    </g>
    <g id="xtick_2">
     <g id="line2d_3">
      <path clip-path="url(#pc71eb00660)" d="M 243.2 567 
L 243.2 77.76 
" style="fill:none;stroke:#ffffff;stroke-linecap:round;"/>
     </g>
     <g id="line2d_4">
      <g>
       <use style="fill:#262626;stroke:#262626;" x="243.2" xlink:href="#mc734cebcea" y="567"/>
      </g>
     </g>
     <g id="text_2">
      <!-- 2013 -->
      <g style="fill:#262626;" transform="translate(246.043672 599.968125)rotate(-90)scale(0.11 -0.11)">
       <defs>
        <path d="M 269 1209 
L 831 1284 
Q 928 806 1161 595 
Q 1394 384 1728 384 
Q 2125 384 2398 659 
Q 2672 934 2672 1341 
Q 2672 1728 2419 1979 
Q 2166 2231 1775 2231 
Q 1616 2231 1378 2169 
L 1441 2663 
Q 1497 2656 1531 2656 
Q 1891 2656 2178 2843 
Q 2466 3031 2466 3422 
Q 2466 3731 2256 3934 
Q 2047 4138 1716 4138 
Q 1388 4138 1169 3931 
Q 950 3725 888 3313 
L 325 3413 
Q 428 3978 793 4289 
Q 1159 4600 1703 4600 
Q 2078 4600 2393 4439 
Q 2709 4278 2876 4000 
Q 3044 3722 3044 3409 
Q 3044 3113 2884 2869 
Q 2725 2625 2413 2481 
Q 2819 2388 3044 2092 
Q 3269 1797 3269 1353 
Q 3269 753 2831 336 
Q 2394 -81 1725 -81 
Q 1122 -81 723 278 
Q 325 638 269 1209 
z
" id="ArialMT-33" transform="scale(0.015625)"/>
       </defs>
       <use xlink:href="#ArialMT-32"/>
       <use x="55.615234" xlink:href="#ArialMT-30"/>
       <use x="111.230469" xlink:href="#ArialMT-31"/>
       <use x="166.845703" xlink:href="#ArialMT-33"/>
      </g>
     </g>
    </g>
    <g id="xtick_3">
     <g id="line2d_5">
      <path clip-path="url(#pc71eb00660)" d="M 342.4 567 
L 342.4 77.76 
" style="fill:none;stroke:#ffffff;stroke-linecap:round;"/>
     </g>
     <g id="line2d_6">
      <g>
       <use style="fill:#262626;stroke:#262626;" x="342.4" xlink:href="#mc734cebcea" y="567"/>
      </g>
     </g>
     <g id="text_3">
      <!-- 2014 -->
      <g style="fill:#262626;" transform="translate(345.243672 599.968125)rotate(-90)scale(0.11 -0.11)">
       <defs>
        <path d="M 2069 0 
L 2069 1097 
L 81 1097 
L 81 1613 
L 2172 4581 
L 2631 4581 
L 2631 1613 
L 3250 1613 
L 3250 1097 
L 2631 1097 
L 2631 0 
L 2069 0 
z
M 2069 1613 
L 2069 3678 
L 634 1613 
L 2069 1613 
z
" id="ArialMT-34" transform="scale(0.015625)"/>
       </defs>
       <use xlink:href="#ArialMT-32"/>
       <use x="55.615234" xlink:href="#ArialMT-30"/>
       <use x="111.230469" xlink:href="#ArialMT-31"/>
       <use x="166.845703" xlink:href="#ArialMT-34"/>
      </g>
     </g>
    </g>
    <g id="xtick_4">
     <g id="line2d_7">
      <path clip-path="url(#pc71eb00660)" d="M 441.6 567 
L 441.6 77.76 
" style="fill:none;stroke:#ffffff;stroke-linecap:round;"/>
     </g>
     <g id="line2d_8">
      <g>
       <use style="fill:#262626;stroke:#262626;" x="441.6" xlink:href="#mc734cebcea" y="567"/>
      </g>
     </g>
     <g id="text_4">
      <!-- 2015 -->
      <g style="fill:#262626;" transform="translate(444.443672 599.968125)rotate(-90)scale(0.11 -0.11)">
       <defs>
        <path d="M 266 1200 
L 856 1250 
Q 922 819 1161 601 
Q 1400 384 1738 384 
Q 2144 384 2425 690 
Q 2706 997 2706 1503 
Q 2706 1984 2436 2262 
Q 2166 2541 1728 2541 
Q 1456 2541 1237 2417 
Q 1019 2294 894 2097 
L 366 2166 
L 809 4519 
L 3088 4519 
L 3088 3981 
L 1259 3981 
L 1013 2750 
Q 1425 3038 1878 3038 
Q 2478 3038 2890 2622 
Q 3303 2206 3303 1553 
Q 3303 931 2941 478 
Q 2500 -78 1738 -78 
Q 1113 -78 717 272 
Q 322 622 266 1200 
z
" id="ArialMT-35" transform="scale(0.015625)"/>
       </defs>
       <use xlink:href="#ArialMT-32"/>
       <use x="55.615234" xlink:href="#ArialMT-30"/>
       <use x="111.230469" xlink:href="#ArialMT-31"/>
       <use x="166.845703" xlink:href="#ArialMT-35"/>
      </g>
     </g>
    </g>
    <g id="xtick_5">
     <g id="line2d_9">
      <path clip-path="url(#pc71eb00660)" d="M 540.8 567 
L 540.8 77.76 
" style="fill:none;stroke:#ffffff;stroke-linecap:round;"/>
     </g>
     <g id="line2d_10">
      <g>
       <use style="fill:#262626;stroke:#262626;" x="540.8" xlink:href="#mc734cebcea" y="567"/>
      </g>
     </g>
     <g id="text_5">
      <!-- 2016 -->
      <g style="fill:#262626;" transform="translate(543.643672 599.968125)rotate(-90)scale(0.11 -0.11)">
       <defs>
        <path d="M 3184 3459 
L 2625 3416 
Q 2550 3747 2413 3897 
Q 2184 4138 1850 4138 
Q 1581 4138 1378 3988 
Q 1113 3794 959 3422 
Q 806 3050 800 2363 
Q 1003 2672 1297 2822 
Q 1591 2972 1913 2972 
Q 2475 2972 2870 2558 
Q 3266 2144 3266 1488 
Q 3266 1056 3080 686 
Q 2894 316 2569 119 
Q 2244 -78 1831 -78 
Q 1128 -78 684 439 
Q 241 956 241 2144 
Q 241 3472 731 4075 
Q 1159 4600 1884 4600 
Q 2425 4600 2770 4297 
Q 3116 3994 3184 3459 
z
M 888 1484 
Q 888 1194 1011 928 
Q 1134 663 1356 523 
Q 1578 384 1822 384 
Q 2178 384 2434 671 
Q 2691 959 2691 1453 
Q 2691 1928 2437 2201 
Q 2184 2475 1800 2475 
Q 1419 2475 1153 2201 
Q 888 1928 888 1484 
z
" id="ArialMT-36" transform="scale(0.015625)"/>
       </defs>
       <use xlink:href="#ArialMT-32"/>
       <use x="55.615234" xlink:href="#ArialMT-30"/>
       <use x="111.230469" xlink:href="#ArialMT-31"/>
       <use x="166.845703" xlink:href="#ArialMT-36"/>
      </g>
     </g>
    </g>
    <g id="xtick_6">
     <g id="line2d_11">
      <path clip-path="url(#pc71eb00660)" d="M 640 567 
L 640 77.76 
" style="fill:none;stroke:#ffffff;stroke-linecap:round;"/>
     </g>
     <g id="line2d_12">
      <g>
       <use style="fill:#262626;stroke:#262626;" x="640" xlink:href="#mc734cebcea" y="567"/>
      </g>
     </g>
     <g id="text_6">
      <!-- 2017 -->
      <g style="fill:#262626;" transform="translate(642.843672 599.968125)rotate(-90)scale(0.11 -0.11)">
       <defs>
        <path d="M 303 3981 
L 303 4522 
L 3269 4522 
L 3269 4084 
Q 2831 3619 2401 2847 
Q 1972 2075 1738 1259 
Q 1569 684 1522 0 
L 944 0 
Q 953 541 1156 1306 
Q 1359 2072 1739 2783 
Q 2119 3494 2547 3981 
L 303 3981 
z
" id="ArialMT-37" transform="scale(0.015625)"/>
       </defs>
       <use xlink:href="#ArialMT-32"/>
       <use x="55.615234" xlink:href="#ArialMT-30"/>
       <use x="111.230469" xlink:href="#ArialMT-31"/>
       <use x="166.845703" xlink:href="#ArialMT-37"/>
      </g>
     </g>
    </g>
    <g id="xtick_7">
     <g id="line2d_13">
      <path clip-path="url(#pc71eb00660)" d="M 739.2 567 
L 739.2 77.76 
" style="fill:none;stroke:#ffffff;stroke-linecap:round;"/>
     </g>
     <g id="line2d_14">
      <g>
       <use style="fill:#262626;stroke:#262626;" x="739.2" xlink:href="#mc734cebcea" y="567"/>
      </g>
     </g>
     <g id="text_7">
      <!-- 2018 -->
      <g style="fill:#262626;" transform="translate(742.043672 599.968125)rotate(-90)scale(0.11 -0.11)">
       <defs>
        <path d="M 1131 2484 
Q 781 2613 612 2850 
Q 444 3088 444 3419 
Q 444 3919 803 4259 
Q 1163 4600 1759 4600 
Q 2359 4600 2725 4251 
Q 3091 3903 3091 3403 
Q 3091 3084 2923 2848 
Q 2756 2613 2416 2484 
Q 2838 2347 3058 2040 
Q 3278 1734 3278 1309 
Q 3278 722 2862 322 
Q 2447 -78 1769 -78 
Q 1091 -78 675 323 
Q 259 725 259 1325 
Q 259 1772 486 2073 
Q 713 2375 1131 2484 
z
M 1019 3438 
Q 1019 3113 1228 2906 
Q 1438 2700 1772 2700 
Q 2097 2700 2305 2904 
Q 2513 3109 2513 3406 
Q 2513 3716 2298 3927 
Q 2084 4138 1766 4138 
Q 1444 4138 1231 3931 
Q 1019 3725 1019 3438 
z
M 838 1322 
Q 838 1081 952 856 
Q 1066 631 1291 507 
Q 1516 384 1775 384 
Q 2178 384 2440 643 
Q 2703 903 2703 1303 
Q 2703 1709 2433 1975 
Q 2163 2241 1756 2241 
Q 1359 2241 1098 1978 
Q 838 1716 838 1322 
z
" id="ArialMT-38" transform="scale(0.015625)"/>
       </defs>
       <use xlink:href="#ArialMT-32"/>
       <use x="55.615234" xlink:href="#ArialMT-30"/>
       <use x="111.230469" xlink:href="#ArialMT-31"/>
       <use x="166.845703" xlink:href="#ArialMT-38"/>
      </g>
     </g>
    </g>
    <g id="xtick_8">
     <g id="line2d_15">
      <path clip-path="url(#pc71eb00660)" d="M 838.4 567 
L 838.4 77.76 
" style="fill:none;stroke:#ffffff;stroke-linecap:round;"/>
     </g>
     <g id="line2d_16">
      <g>
       <use style="fill:#262626;stroke:#262626;" x="838.4" xlink:href="#mc734cebcea" y="567"/>
      </g>
     </g>
     <g id="text_8">
      <!-- 2019 -->
      <g style="fill:#262626;" transform="translate(841.243672 599.968125)rotate(-90)scale(0.11 -0.11)">
       <defs>
        <path d="M 350 1059 
L 891 1109 
Q 959 728 1153 556 
Q 1347 384 1650 384 
Q 1909 384 2104 503 
Q 2300 622 2425 820 
Q 2550 1019 2634 1356 
Q 2719 1694 2719 2044 
Q 2719 2081 2716 2156 
Q 2547 1888 2255 1720 
Q 1963 1553 1622 1553 
Q 1053 1553 659 1965 
Q 266 2378 266 3053 
Q 266 3750 677 4175 
Q 1088 4600 1706 4600 
Q 2153 4600 2523 4359 
Q 2894 4119 3086 3673 
Q 3278 3228 3278 2384 
Q 3278 1506 3087 986 
Q 2897 466 2520 194 
Q 2144 -78 1638 -78 
Q 1100 -78 759 220 
Q 419 519 350 1059 
z
M 2653 3081 
Q 2653 3566 2395 3850 
Q 2138 4134 1775 4134 
Q 1400 4134 1122 3828 
Q 844 3522 844 3034 
Q 844 2597 1108 2323 
Q 1372 2050 1759 2050 
Q 2150 2050 2401 2323 
Q 2653 2597 2653 3081 
z
" id="ArialMT-39" transform="scale(0.015625)"/>
       </defs>
       <use xlink:href="#ArialMT-32"/>
       <use x="55.615234" xlink:href="#ArialMT-30"/>
       <use x="111.230469" xlink:href="#ArialMT-31"/>
       <use x="166.845703" xlink:href="#ArialMT-39"/>
      </g>
     </g>
    </g>
    <g id="xtick_9">
     <g id="line2d_17">
      <path clip-path="url(#pc71eb00660)" d="M 937.6 567 
L 937.6 77.76 
" style="fill:none;stroke:#ffffff;stroke-linecap:round;"/>
     </g>
     <g id="line2d_18">
      <g>
       <use style="fill:#262626;stroke:#262626;" x="937.6" xlink:href="#mc734cebcea" y="567"/>
      </g>
     </g>
     <g id="text_9">
      <!-- 2020 -->
      <g style="fill:#262626;" transform="translate(940.443672 599.968125)rotate(-90)scale(0.11 -0.11)">
       <use xlink:href="#ArialMT-32"/>
       <use x="55.615234" xlink:href="#ArialMT-30"/>
       <use x="111.230469" xlink:href="#ArialMT-32"/>
       <use x="166.845703" xlink:href="#ArialMT-30"/>
      </g>
     </g>
    </g>
    <g id="xtick_10">
     <g id="line2d_19">
      <path clip-path="url(#pc71eb00660)" d="M 1036.8 567 
L 1036.8 77.76 
" style="fill:none;stroke:#ffffff;stroke-linecap:round;"/>
     </g>
     <g id="line2d_20">
      <g>
       <use style="fill:#262626;stroke:#262626;" x="1036.8" xlink:href="#mc734cebcea" y="567"/>
      </g>
     </g>
     <g id="text_10">
      <!-- 2021 -->
      <g style="fill:#262626;" transform="translate(1039.643672 599.968125)rotate(-90)scale(0.11 -0.11)">
       <use xlink:href="#ArialMT-32"/>
       <use x="55.615234" xlink:href="#ArialMT-30"/>
       <use x="111.230469" xlink:href="#ArialMT-32"/>
       <use x="166.845703" xlink:href="#ArialMT-31"/>
      </g>
     </g>
    </g>
    <g id="xtick_11">
     <g id="line2d_21">
      <path clip-path="url(#pc71eb00660)" d="M 168.8 567 
L 168.8 77.76 
" style="fill:none;stroke:#ffffff;stroke-linecap:round;"/>
     </g>
     <g id="line2d_22">
      <defs>
       <path d="M 0 0 
L 0 2.5 
" id="m13d6699ec2" style="stroke:#262626;stroke-width:0.75;"/>
      </defs>
      <g>
       <use style="fill:#262626;stroke:#262626;stroke-width:0.75;" x="168.8" xlink:href="#m13d6699ec2" y="567"/>
      </g>
     </g>
    </g>
    <g id="xtick_12">
     <g id="line2d_23">
      <path clip-path="url(#pc71eb00660)" d="M 193.6 567 
L 193.6 77.76 
" style="fill:none;stroke:#ffffff;stroke-linecap:round;"/>
     </g>
     <g id="line2d_24">
      <g>
       <use style="fill:#262626;stroke:#262626;stroke-width:0.75;" x="193.6" xlink:href="#m13d6699ec2" y="567"/>
      </g>
     </g>
    </g>
    <g id="xtick_13">
     <g id="line2d_25">
      <path clip-path="url(#pc71eb00660)" d="M 218.4 567 
L 218.4 77.76 
" style="fill:none;stroke:#ffffff;stroke-linecap:round;"/>
     </g>
     <g id="line2d_26">
      <g>
       <use style="fill:#262626;stroke:#262626;stroke-width:0.75;" x="218.4" xlink:href="#m13d6699ec2" y="567"/>
      </g>
     </g>
    </g>
    <g id="xtick_14">
     <g id="line2d_27">
      <path clip-path="url(#pc71eb00660)" d="M 268 567 
L 268 77.76 
" style="fill:none;stroke:#ffffff;stroke-linecap:round;"/>
     </g>
     <g id="line2d_28">
      <g>
       <use style="fill:#262626;stroke:#262626;stroke-width:0.75;" x="268" xlink:href="#m13d6699ec2" y="567"/>
      </g>
     </g>
    </g>
    <g id="xtick_15">
     <g id="line2d_29">
      <path clip-path="url(#pc71eb00660)" d="M 292.8 567 
L 292.8 77.76 
" style="fill:none;stroke:#ffffff;stroke-linecap:round;"/>
     </g>
     <g id="line2d_30">
      <g>
       <use style="fill:#262626;stroke:#262626;stroke-width:0.75;" x="292.8" xlink:href="#m13d6699ec2" y="567"/>
      </g>
     </g>
    </g>
    <g id="xtick_16">
     <g id="line2d_31">
      <path clip-path="url(#pc71eb00660)" d="M 317.6 567 
L 317.6 77.76 
" style="fill:none;stroke:#ffffff;stroke-linecap:round;"/>
     </g>
     <g id="line2d_32">
      <g>
       <use style="fill:#262626;stroke:#262626;stroke-width:0.75;" x="317.6" xlink:href="#m13d6699ec2" y="567"/>
      </g>
     </g>
    </g>
    <g id="xtick_17">
     <g id="line2d_33">
      <path clip-path="url(#pc71eb00660)" d="M 367.2 567 
L 367.2 77.76 
" style="fill:none;stroke:#ffffff;stroke-linecap:round;"/>
     </g>
     <g id="line2d_34">
      <g>
       <use style="fill:#262626;stroke:#262626;stroke-width:0.75;" x="367.2" xlink:href="#m13d6699ec2" y="567"/>
      </g>
     </g>
    </g>
    <g id="xtick_18">
     <g id="line2d_35">
      <path clip-path="url(#pc71eb00660)" d="M 392 567 
L 392 77.76 
" style="fill:none;stroke:#ffffff;stroke-linecap:round;"/>
     </g>
     <g id="line2d_36">
      <g>
       <use style="fill:#262626;stroke:#262626;stroke-width:0.75;" x="392" xlink:href="#m13d6699ec2" y="567"/>
      </g>
     </g>
    </g>
    <g id="xtick_19">
     <g id="line2d_37">
      <path clip-path="url(#pc71eb00660)" d="M 416.8 567 
L 416.8 77.76 
" style="fill:none;stroke:#ffffff;stroke-linecap:round;"/>
     </g>
     <g id="line2d_38">
      <g>
       <use style="fill:#262626;stroke:#262626;stroke-width:0.75;" x="416.8" xlink:href="#m13d6699ec2" y="567"/>
      </g>
     </g>
    </g>
    <g id="xtick_20">
     <g id="line2d_39">
      <path clip-path="url(#pc71eb00660)" d="M 466.4 567 
L 466.4 77.76 
" style="fill:none;stroke:#ffffff;stroke-linecap:round;"/>
     </g>
     <g id="line2d_40">
      <g>
       <use style="fill:#262626;stroke:#262626;stroke-width:0.75;" x="466.4" xlink:href="#m13d6699ec2" y="567"/>
      </g>
     </g>
    </g>
    <g id="xtick_21">
     <g id="line2d_41">
      <path clip-path="url(#pc71eb00660)" d="M 491.2 567 
L 491.2 77.76 
" style="fill:none;stroke:#ffffff;stroke-linecap:round;"/>
     </g>
     <g id="line2d_42">
      <g>
       <use style="fill:#262626;stroke:#262626;stroke-width:0.75;" x="491.2" xlink:href="#m13d6699ec2" y="567"/>
      </g>
     </g>
    </g>
    <g id="xtick_22">
     <g id="line2d_43">
      <path clip-path="url(#pc71eb00660)" d="M 516 567 
L 516 77.76 
" style="fill:none;stroke:#ffffff;stroke-linecap:round;"/>
     </g>
     <g id="line2d_44">
      <g>
       <use style="fill:#262626;stroke:#262626;stroke-width:0.75;" x="516" xlink:href="#m13d6699ec2" y="567"/>
      </g>
     </g>
    </g>
    <g id="xtick_23">
     <g id="line2d_45">
      <path clip-path="url(#pc71eb00660)" d="M 565.6 567 
L 565.6 77.76 
" style="fill:none;stroke:#ffffff;stroke-linecap:round;"/>
     </g>
     <g id="line2d_46">
      <g>
       <use style="fill:#262626;stroke:#262626;stroke-width:0.75;" x="565.6" xlink:href="#m13d6699ec2" y="567"/>
      </g>
     </g>
    </g>
    <g id="xtick_24">
     <g id="line2d_47">
      <path clip-path="url(#pc71eb00660)" d="M 590.4 567 
L 590.4 77.76 
" style="fill:none;stroke:#ffffff;stroke-linecap:round;"/>
     </g>
     <g id="line2d_48">
      <g>
       <use style="fill:#262626;stroke:#262626;stroke-width:0.75;" x="590.4" xlink:href="#m13d6699ec2" y="567"/>
      </g>
     </g>
    </g>
    <g id="xtick_25">
     <g id="line2d_49">
      <path clip-path="url(#pc71eb00660)" d="M 615.2 567 
L 615.2 77.76 
" style="fill:none;stroke:#ffffff;stroke-linecap:round;"/>
     </g>
     <g id="line2d_50">
      <g>
       <use style="fill:#262626;stroke:#262626;stroke-width:0.75;" x="615.2" xlink:href="#m13d6699ec2" y="567"/>
      </g>
     </g>
    </g>
    <g id="xtick_26">
     <g id="line2d_51">
      <path clip-path="url(#pc71eb00660)" d="M 664.8 567 
L 664.8 77.76 
" style="fill:none;stroke:#ffffff;stroke-linecap:round;"/>
     </g>
     <g id="line2d_52">
      <g>
       <use style="fill:#262626;stroke:#262626;stroke-width:0.75;" x="664.8" xlink:href="#m13d6699ec2" y="567"/>
      </g>
     </g>
    </g>
    <g id="xtick_27">
     <g id="line2d_53">
      <path clip-path="url(#pc71eb00660)" d="M 689.6 567 
L 689.6 77.76 
" style="fill:none;stroke:#ffffff;stroke-linecap:round;"/>
     </g>
     <g id="line2d_54">
      <g>
       <use style="fill:#262626;stroke:#262626;stroke-width:0.75;" x="689.6" xlink:href="#m13d6699ec2" y="567"/>
      </g>
     </g>
    </g>
    <g id="xtick_28">
     <g id="line2d_55">
      <path clip-path="url(#pc71eb00660)" d="M 714.4 567 
L 714.4 77.76 
" style="fill:none;stroke:#ffffff;stroke-linecap:round;"/>
     </g>
     <g id="line2d_56">
      <g>
       <use style="fill:#262626;stroke:#262626;stroke-width:0.75;" x="714.4" xlink:href="#m13d6699ec2" y="567"/>
      </g>
     </g>
    </g>
    <g id="xtick_29">
     <g id="line2d_57">
      <path clip-path="url(#pc71eb00660)" d="M 764 567 
L 764 77.76 
" style="fill:none;stroke:#ffffff;stroke-linecap:round;"/>
     </g>
     <g id="line2d_58">
      <g>
       <use style="fill:#262626;stroke:#262626;stroke-width:0.75;" x="764" xlink:href="#m13d6699ec2" y="567"/>
      </g>
     </g>
    </g>
    <g id="xtick_30">
     <g id="line2d_59">
      <path clip-path="url(#pc71eb00660)" d="M 788.8 567 
L 788.8 77.76 
" style="fill:none;stroke:#ffffff;stroke-linecap:round;"/>
     </g>
     <g id="line2d_60">
      <g>
       <use style="fill:#262626;stroke:#262626;stroke-width:0.75;" x="788.8" xlink:href="#m13d6699ec2" y="567"/>
      </g>
     </g>
    </g>
    <g id="xtick_31">
     <g id="line2d_61">
      <path clip-path="url(#pc71eb00660)" d="M 813.6 567 
L 813.6 77.76 
" style="fill:none;stroke:#ffffff;stroke-linecap:round;"/>
     </g>
     <g id="line2d_62">
      <g>
       <use style="fill:#262626;stroke:#262626;stroke-width:0.75;" x="813.6" xlink:href="#m13d6699ec2" y="567"/>
      </g>
     </g>
    </g>
    <g id="xtick_32">
     <g id="line2d_63">
      <path clip-path="url(#pc71eb00660)" d="M 863.2 567 
L 863.2 77.76 
" style="fill:none;stroke:#ffffff;stroke-linecap:round;"/>
     </g>
     <g id="line2d_64">
      <g>
       <use style="fill:#262626;stroke:#262626;stroke-width:0.75;" x="863.2" xlink:href="#m13d6699ec2" y="567"/>
      </g>
     </g>
    </g>
    <g id="xtick_33">
     <g id="line2d_65">
      <path clip-path="url(#pc71eb00660)" d="M 888 567 
L 888 77.76 
" style="fill:none;stroke:#ffffff;stroke-linecap:round;"/>
     </g>
     <g id="line2d_66">
      <g>
       <use style="fill:#262626;stroke:#262626;stroke-width:0.75;" x="888" xlink:href="#m13d6699ec2" y="567"/>
      </g>
     </g>
    </g>
    <g id="xtick_34">
     <g id="line2d_67">
      <path clip-path="url(#pc71eb00660)" d="M 912.8 567 
L 912.8 77.76 
" style="fill:none;stroke:#ffffff;stroke-linecap:round;"/>
     </g>
     <g id="line2d_68">
      <g>
       <use style="fill:#262626;stroke:#262626;stroke-width:0.75;" x="912.8" xlink:href="#m13d6699ec2" y="567"/>
      </g>
     </g>
    </g>
    <g id="xtick_35">
     <g id="line2d_69">
      <path clip-path="url(#pc71eb00660)" d="M 962.4 567 
L 962.4 77.76 
" style="fill:none;stroke:#ffffff;stroke-linecap:round;"/>
     </g>
     <g id="line2d_70">
      <g>
       <use style="fill:#262626;stroke:#262626;stroke-width:0.75;" x="962.4" xlink:href="#m13d6699ec2" y="567"/>
      </g>
     </g>
    </g>
    <g id="xtick_36">
     <g id="line2d_71">
      <path clip-path="url(#pc71eb00660)" d="M 987.2 567 
L 987.2 77.76 
" style="fill:none;stroke:#ffffff;stroke-linecap:round;"/>
     </g>
     <g id="line2d_72">
      <g>
       <use style="fill:#262626;stroke:#262626;stroke-width:0.75;" x="987.2" xlink:href="#m13d6699ec2" y="567"/>
      </g>
     </g>
    </g>
    <g id="xtick_37">
     <g id="line2d_73">
      <path clip-path="url(#pc71eb00660)" d="M 1012 567 
L 1012 77.76 
" style="fill:none;stroke:#ffffff;stroke-linecap:round;"/>
     </g>
     <g id="line2d_74">
      <g>
       <use style="fill:#262626;stroke:#262626;stroke-width:0.75;" x="1012" xlink:href="#m13d6699ec2" y="567"/>
      </g>
     </g>
    </g>
   </g>
   <g id="matplotlib.axis_2">
    <g id="ytick_1">
     <g id="line2d_75">
      <path clip-path="url(#pc71eb00660)" d="M 144 544.522525 
L 1036.8 544.522525 
" style="fill:none;stroke:#ffffff;stroke-linecap:round;"/>
     </g>
     <g id="text_11">
      <!-- 91 -->
      <g style="fill:#262626;" transform="translate(123.265938 548.459322)scale(0.11 -0.11)">
       <use xlink:href="#ArialMT-39"/>
       <use x="55.615234" xlink:href="#ArialMT-31"/>
      </g>
     </g>
    </g>
    <g id="ytick_2">
     <g id="line2d_76">
      <path clip-path="url(#pc71eb00660)" d="M 144 450.469687 
L 1036.8 450.469687 
" style="fill:none;stroke:#ffffff;stroke-linecap:round;"/>
     </g>
     <g id="text_12">
      <!-- 92 -->
      <g style="fill:#262626;" transform="translate(123.265938 454.406484)scale(0.11 -0.11)">
       <use xlink:href="#ArialMT-39"/>
       <use x="55.615234" xlink:href="#ArialMT-32"/>
      </g>
     </g>
    </g>
    <g id="ytick_3">
     <g id="line2d_77">
      <path clip-path="url(#pc71eb00660)" d="M 144 356.416849 
L 1036.8 356.416849 
" style="fill:none;stroke:#ffffff;stroke-linecap:round;"/>
     </g>
     <g id="text_13">
      <!-- 93 -->
      <g style="fill:#262626;" transform="translate(123.265938 360.353646)scale(0.11 -0.11)">
       <use xlink:href="#ArialMT-39"/>
       <use x="55.615234" xlink:href="#ArialMT-33"/>
      </g>
     </g>
    </g>
    <g id="ytick_4">
     <g id="line2d_78">
      <path clip-path="url(#pc71eb00660)" d="M 144 262.364012 
L 1036.8 262.364012 
" style="fill:none;stroke:#ffffff;stroke-linecap:round;"/>
     </g>
     <g id="text_14">
      <!-- 94 -->
      <g style="fill:#262626;" transform="translate(123.265938 266.300809)scale(0.11 -0.11)">
       <use xlink:href="#ArialMT-39"/>
       <use x="55.615234" xlink:href="#ArialMT-34"/>
      </g>
     </g>
    </g>
    <g id="ytick_5">
     <g id="line2d_79">
      <path clip-path="url(#pc71eb00660)" d="M 144 168.311174 
L 1036.8 168.311174 
" style="fill:none;stroke:#ffffff;stroke-linecap:round;"/>
     </g>
     <g id="text_15">
      <!-- 95 -->
      <g style="fill:#262626;" transform="translate(123.265938 172.247971)scale(0.11 -0.11)">
       <use xlink:href="#ArialMT-39"/>
       <use x="55.615234" xlink:href="#ArialMT-35"/>
      </g>
     </g>
    </g>
   </g>
   <g id="line2d_80">
    <path clip-path="url(#pc71eb00660)" d="M 144 437.933085 
L 168.8 355.221778 
L 193.6 389.472467 
L 218.4 497.27396 
L 243.2 409.122195 
L 268 323.149199 
L 292.8 390.972292 
L 317.6 474.913544 
L 342.4 441.682862 
L 367.2 336.564176 
L 392 337.672183 
L 416.8 442.518107 
L 441.6 377.9601 
L 466.4 281.580594 
L 491.2 297.111502 
L 516 399.161336 
L 540.8 334.663384 
L 565.6 252.431852 
L 590.4 254.050013 
L 615.2 356.394486 
L 640 225.379246 
L 664.8 184.049992 
L 689.6 241.595863 
L 714.4 363.361046 
L 739.2 189.636405 
L 764 127.428479 
L 788.8 176.708373 
L 813.6 320.986475 
L 838.4 187.707218 
L 863.2 99.998182 
L 888 192.972583 
L 912.8 289.934623 
L 937.6 156.119481 
L 962.4 128.305518 
L 987.2 246.469279 
L 1012 440.352526 
L 1036.8 384.28801 
L 1061.6 310.052962 
" style="fill:none;stroke:#4c72b0;stroke-linecap:round;stroke-width:3;"/>
    <defs>
     <path d="M 0 6 
C 1.591219 6 3.117479 5.367802 4.242641 4.242641 
C 5.367802 3.117479 6 1.591219 6 0 
C 6 -1.591219 5.367802 -3.117479 4.242641 -4.242641 
C 3.117479 -5.367802 1.591219 -6 0 -6 
C -1.591219 -6 -3.117479 -5.367802 -4.242641 -4.242641 
C -5.367802 -3.117479 -6 -1.591219 -6 0 
C -6 1.591219 -5.367802 3.117479 -4.242641 4.242641 
C -3.117479 5.367802 -1.591219 6 0 6 
z
" id="m7f6c15474a" style="stroke:#4c72b0;"/>
    </defs>
    <g clip-path="url(#pc71eb00660)">
     <use style="fill:#4c72b0;stroke:#4c72b0;" x="144" xlink:href="#m7f6c15474a" y="437.933085"/>
     <use style="fill:#4c72b0;stroke:#4c72b0;" x="168.8" xlink:href="#m7f6c15474a" y="355.221778"/>
     <use style="fill:#4c72b0;stroke:#4c72b0;" x="193.6" xlink:href="#m7f6c15474a" y="389.472467"/>
     <use style="fill:#4c72b0;stroke:#4c72b0;" x="218.4" xlink:href="#m7f6c15474a" y="497.27396"/>
     <use style="fill:#4c72b0;stroke:#4c72b0;" x="243.2" xlink:href="#m7f6c15474a" y="409.122195"/>
     <use style="fill:#4c72b0;stroke:#4c72b0;" x="268" xlink:href="#m7f6c15474a" y="323.149199"/>
     <use style="fill:#4c72b0;stroke:#4c72b0;" x="292.8" xlink:href="#m7f6c15474a" y="390.972292"/>
     <use style="fill:#4c72b0;stroke:#4c72b0;" x="317.6" xlink:href="#m7f6c15474a" y="474.913544"/>
     <use style="fill:#4c72b0;stroke:#4c72b0;" x="342.4" xlink:href="#m7f6c15474a" y="441.682862"/>
     <use style="fill:#4c72b0;stroke:#4c72b0;" x="367.2" xlink:href="#m7f6c15474a" y="336.564176"/>
     <use style="fill:#4c72b0;stroke:#4c72b0;" x="392" xlink:href="#m7f6c15474a" y="337.672183"/>
     <use style="fill:#4c72b0;stroke:#4c72b0;" x="416.8" xlink:href="#m7f6c15474a" y="442.518107"/>
     <use style="fill:#4c72b0;stroke:#4c72b0;" x="441.6" xlink:href="#m7f6c15474a" y="377.9601"/>
     <use style="fill:#4c72b0;stroke:#4c72b0;" x="466.4" xlink:href="#m7f6c15474a" y="281.580594"/>
     <use style="fill:#4c72b0;stroke:#4c72b0;" x="491.2" xlink:href="#m7f6c15474a" y="297.111502"/>
     <use style="fill:#4c72b0;stroke:#4c72b0;" x="516" xlink:href="#m7f6c15474a" y="399.161336"/>
     <use style="fill:#4c72b0;stroke:#4c72b0;" x="540.8" xlink:href="#m7f6c15474a" y="334.663384"/>
     <use style="fill:#4c72b0;stroke:#4c72b0;" x="565.6" xlink:href="#m7f6c15474a" y="252.431852"/>
     <use style="fill:#4c72b0;stroke:#4c72b0;" x="590.4" xlink:href="#m7f6c15474a" y="254.050013"/>
     <use style="fill:#4c72b0;stroke:#4c72b0;" x="615.2" xlink:href="#m7f6c15474a" y="356.394486"/>
     <use style="fill:#4c72b0;stroke:#4c72b0;" x="640" xlink:href="#m7f6c15474a" y="225.379246"/>
     <use style="fill:#4c72b0;stroke:#4c72b0;" x="664.8" xlink:href="#m7f6c15474a" y="184.049992"/>
     <use style="fill:#4c72b0;stroke:#4c72b0;" x="689.6" xlink:href="#m7f6c15474a" y="241.595863"/>
     <use style="fill:#4c72b0;stroke:#4c72b0;" x="714.4" xlink:href="#m7f6c15474a" y="363.361046"/>
     <use style="fill:#4c72b0;stroke:#4c72b0;" x="739.2" xlink:href="#m7f6c15474a" y="189.636405"/>
     <use style="fill:#4c72b0;stroke:#4c72b0;" x="764" xlink:href="#m7f6c15474a" y="127.428479"/>
     <use style="fill:#4c72b0;stroke:#4c72b0;" x="788.8" xlink:href="#m7f6c15474a" y="176.708373"/>
     <use style="fill:#4c72b0;stroke:#4c72b0;" x="813.6" xlink:href="#m7f6c15474a" y="320.986475"/>
     <use style="fill:#4c72b0;stroke:#4c72b0;" x="838.4" xlink:href="#m7f6c15474a" y="187.707218"/>
     <use style="fill:#4c72b0;stroke:#4c72b0;" x="863.2" xlink:href="#m7f6c15474a" y="99.998182"/>
     <use style="fill:#4c72b0;stroke:#4c72b0;" x="888" xlink:href="#m7f6c15474a" y="192.972583"/>
     <use style="fill:#4c72b0;stroke:#4c72b0;" x="912.8" xlink:href="#m7f6c15474a" y="289.934623"/>
     <use style="fill:#4c72b0;stroke:#4c72b0;" x="937.6" xlink:href="#m7f6c15474a" y="156.119481"/>
     <use style="fill:#4c72b0;stroke:#4c72b0;" x="962.4" xlink:href="#m7f6c15474a" y="128.305518"/>
     <use style="fill:#4c72b0;stroke:#4c72b0;" x="987.2" xlink:href="#m7f6c15474a" y="246.469279"/>
     <use style="fill:#4c72b0;stroke:#4c72b0;" x="1012" xlink:href="#m7f6c15474a" y="440.352526"/>
     <use style="fill:#4c72b0;stroke:#4c72b0;" x="1036.8" xlink:href="#m7f6c15474a" y="384.28801"/>
     <use style="fill:#4c72b0;stroke:#4c72b0;" x="1061.6" xlink:href="#m7f6c15474a" y="310.052962"/>
    </g>
   </g>
   <g id="line2d_81">
    <path clip-path="url(#pc71eb00660)" d="M 144 544.761818 
L 168.8 412.518812 
L 193.6 436.847945 
L 218.4 502.376165 
L 243.2 513.8939 
L 268 372.62978 
L 292.8 386.319579 
L 317.6 502.677968 
L 342.4 524.990882 
L 367.2 366.052467 
L 392 352.581067 
L 416.8 410.305077 
L 441.6 386.34615 
L 466.4 275.787584 
L 491.2 336.038067 
L 516 417.982143 
L 540.8 320.75701 
L 565.6 253.237676 
L 590.4 259.349856 
L 615.2 341.817363 
L 640 338.163902 
L 664.8 203.638613 
L 689.6 221.759209 
L 714.4 329.93739 
L 739.2 262.908991 
L 764 124.940396 
L 788.8 201.715024 
L 813.6 320.845447 
L 838.4 233.93259 
L 863.2 130.939908 
L 888 196.914757 
L 912.8 314.602266 
L 937.6 201.349742 
L 962.4 120.088079 
L 987.2 169.213177 
L 1012 360.568516 
L 1036.8 348.006309 
L 1061.6 229.783266 
" style="fill:none;stroke:#dd8452;stroke-linecap:round;stroke-width:3;"/>
    <defs>
     <path d="M 0 6 
C 1.591219 6 3.117479 5.367802 4.242641 4.242641 
C 5.367802 3.117479 6 1.591219 6 0 
C 6 -1.591219 5.367802 -3.117479 4.242641 -4.242641 
C 3.117479 -5.367802 1.591219 -6 0 -6 
C -1.591219 -6 -3.117479 -5.367802 -4.242641 -4.242641 
C -5.367802 -3.117479 -6 -1.591219 -6 0 
C -6 1.591219 -5.367802 3.117479 -4.242641 4.242641 
C -3.117479 5.367802 -1.591219 6 0 6 
z
" id="me9fd03b5ec" style="stroke:#dd8452;"/>
    </defs>
    <g clip-path="url(#pc71eb00660)">
     <use style="fill:#dd8452;stroke:#dd8452;" x="144" xlink:href="#me9fd03b5ec" y="544.761818"/>
     <use style="fill:#dd8452;stroke:#dd8452;" x="168.8" xlink:href="#me9fd03b5ec" y="412.518812"/>
     <use style="fill:#dd8452;stroke:#dd8452;" x="193.6" xlink:href="#me9fd03b5ec" y="436.847945"/>
     <use style="fill:#dd8452;stroke:#dd8452;" x="218.4" xlink:href="#me9fd03b5ec" y="502.376165"/>
     <use style="fill:#dd8452;stroke:#dd8452;" x="243.2" xlink:href="#me9fd03b5ec" y="513.8939"/>
     <use style="fill:#dd8452;stroke:#dd8452;" x="268" xlink:href="#me9fd03b5ec" y="372.62978"/>
     <use style="fill:#dd8452;stroke:#dd8452;" x="292.8" xlink:href="#me9fd03b5ec" y="386.319579"/>
     <use style="fill:#dd8452;stroke:#dd8452;" x="317.6" xlink:href="#me9fd03b5ec" y="502.677968"/>
     <use style="fill:#dd8452;stroke:#dd8452;" x="342.4" xlink:href="#me9fd03b5ec" y="524.990882"/>
     <use style="fill:#dd8452;stroke:#dd8452;" x="367.2" xlink:href="#me9fd03b5ec" y="366.052467"/>
     <use style="fill:#dd8452;stroke:#dd8452;" x="392" xlink:href="#me9fd03b5ec" y="352.581067"/>
     <use style="fill:#dd8452;stroke:#dd8452;" x="416.8" xlink:href="#me9fd03b5ec" y="410.305077"/>
     <use style="fill:#dd8452;stroke:#dd8452;" x="441.6" xlink:href="#me9fd03b5ec" y="386.34615"/>
     <use style="fill:#dd8452;stroke:#dd8452;" x="466.4" xlink:href="#me9fd03b5ec" y="275.787584"/>
     <use style="fill:#dd8452;stroke:#dd8452;" x="491.2" xlink:href="#me9fd03b5ec" y="336.038067"/>
     <use style="fill:#dd8452;stroke:#dd8452;" x="516" xlink:href="#me9fd03b5ec" y="417.982143"/>
     <use style="fill:#dd8452;stroke:#dd8452;" x="540.8" xlink:href="#me9fd03b5ec" y="320.75701"/>
     <use style="fill:#dd8452;stroke:#dd8452;" x="565.6" xlink:href="#me9fd03b5ec" y="253.237676"/>
     <use style="fill:#dd8452;stroke:#dd8452;" x="590.4" xlink:href="#me9fd03b5ec" y="259.349856"/>
     <use style="fill:#dd8452;stroke:#dd8452;" x="615.2" xlink:href="#me9fd03b5ec" y="341.817363"/>
     <use style="fill:#dd8452;stroke:#dd8452;" x="640" xlink:href="#me9fd03b5ec" y="338.163902"/>
     <use style="fill:#dd8452;stroke:#dd8452;" x="664.8" xlink:href="#me9fd03b5ec" y="203.638613"/>
     <use style="fill:#dd8452;stroke:#dd8452;" x="689.6" xlink:href="#me9fd03b5ec" y="221.759209"/>
     <use style="fill:#dd8452;stroke:#dd8452;" x="714.4" xlink:href="#me9fd03b5ec" y="329.93739"/>
     <use style="fill:#dd8452;stroke:#dd8452;" x="739.2" xlink:href="#me9fd03b5ec" y="262.908991"/>
     <use style="fill:#dd8452;stroke:#dd8452;" x="764" xlink:href="#me9fd03b5ec" y="124.940396"/>
     <use style="fill:#dd8452;stroke:#dd8452;" x="788.8" xlink:href="#me9fd03b5ec" y="201.715024"/>
     <use style="fill:#dd8452;stroke:#dd8452;" x="813.6" xlink:href="#me9fd03b5ec" y="320.845447"/>
     <use style="fill:#dd8452;stroke:#dd8452;" x="838.4" xlink:href="#me9fd03b5ec" y="233.93259"/>
     <use style="fill:#dd8452;stroke:#dd8452;" x="863.2" xlink:href="#me9fd03b5ec" y="130.939908"/>
     <use style="fill:#dd8452;stroke:#dd8452;" x="888" xlink:href="#me9fd03b5ec" y="196.914757"/>
     <use style="fill:#dd8452;stroke:#dd8452;" x="912.8" xlink:href="#me9fd03b5ec" y="314.602266"/>
     <use style="fill:#dd8452;stroke:#dd8452;" x="937.6" xlink:href="#me9fd03b5ec" y="201.349742"/>
     <use style="fill:#dd8452;stroke:#dd8452;" x="962.4" xlink:href="#me9fd03b5ec" y="120.088079"/>
     <use style="fill:#dd8452;stroke:#dd8452;" x="987.2" xlink:href="#me9fd03b5ec" y="169.213177"/>
     <use style="fill:#dd8452;stroke:#dd8452;" x="1012" xlink:href="#me9fd03b5ec" y="360.568516"/>
     <use style="fill:#dd8452;stroke:#dd8452;" x="1036.8" xlink:href="#me9fd03b5ec" y="348.006309"/>
     <use style="fill:#dd8452;stroke:#dd8452;" x="1061.6" xlink:href="#me9fd03b5ec" y="229.783266"/>
    </g>
   </g>
   <g id="patch_3">
    <path d="M 144 567 
L 144 77.76 
" style="fill:none;stroke:#ffffff;stroke-linecap:square;stroke-linejoin:miter;stroke-width:1.25;"/>
   </g>
   <g id="patch_4">
    <path d="M 1036.8 567 
L 1036.8 77.76 
" style="fill:none;stroke:#ffffff;stroke-linecap:square;stroke-linejoin:miter;stroke-width:1.25;"/>
   </g>
   <g id="patch_5">
    <path d="M 144 567 
L 1036.8 567 
" style="fill:none;stroke:#ffffff;stroke-linecap:square;stroke-linejoin:miter;stroke-width:1.25;"/>
   </g>
   <g id="patch_6">
    <path d="M 144 77.76 
L 1036.8 77.76 
" style="fill:none;stroke:#ffffff;stroke-linecap:square;stroke-linejoin:miter;stroke-width:1.25;"/>
   </g>
   <g id="text_16">
    <!-- Escolaridade líquida Ensino Fundamental, por sexo, Brasil, 2012-2021 -->
    <g style="fill:#262626;" transform="translate(340.4875 71.76)scale(0.16 -0.16)">
     <defs>
      <path d="M 506 0 
L 506 4581 
L 3819 4581 
L 3819 4041 
L 1113 4041 
L 1113 2638 
L 3647 2638 
L 3647 2100 
L 1113 2100 
L 1113 541 
L 3925 541 
L 3925 0 
L 506 0 
z
" id="ArialMT-45" transform="scale(0.015625)"/>
      <path d="M 197 991 
L 753 1078 
Q 800 744 1014 566 
Q 1228 388 1613 388 
Q 2000 388 2187 545 
Q 2375 703 2375 916 
Q 2375 1106 2209 1216 
Q 2094 1291 1634 1406 
Q 1016 1563 777 1677 
Q 538 1791 414 1992 
Q 291 2194 291 2438 
Q 291 2659 392 2848 
Q 494 3038 669 3163 
Q 800 3259 1026 3326 
Q 1253 3394 1513 3394 
Q 1903 3394 2198 3281 
Q 2494 3169 2634 2976 
Q 2775 2784 2828 2463 
L 2278 2388 
Q 2241 2644 2061 2787 
Q 1881 2931 1553 2931 
Q 1166 2931 1000 2803 
Q 834 2675 834 2503 
Q 834 2394 903 2306 
Q 972 2216 1119 2156 
Q 1203 2125 1616 2013 
Q 2213 1853 2448 1751 
Q 2684 1650 2818 1456 
Q 2953 1263 2953 975 
Q 2953 694 2789 445 
Q 2625 197 2315 61 
Q 2006 -75 1616 -75 
Q 969 -75 630 194 
Q 291 463 197 991 
z
" id="ArialMT-73" transform="scale(0.015625)"/>
      <path d="M 2588 1216 
L 3141 1144 
Q 3050 572 2676 248 
Q 2303 -75 1759 -75 
Q 1078 -75 664 370 
Q 250 816 250 1647 
Q 250 2184 428 2587 
Q 606 2991 970 3192 
Q 1334 3394 1763 3394 
Q 2303 3394 2647 3120 
Q 2991 2847 3088 2344 
L 2541 2259 
Q 2463 2594 2264 2762 
Q 2066 2931 1784 2931 
Q 1359 2931 1093 2626 
Q 828 2322 828 1663 
Q 828 994 1084 691 
Q 1341 388 1753 388 
Q 2084 388 2306 591 
Q 2528 794 2588 1216 
z
" id="ArialMT-63" transform="scale(0.015625)"/>
      <path d="M 213 1659 
Q 213 2581 725 3025 
Q 1153 3394 1769 3394 
Q 2453 3394 2887 2945 
Q 3322 2497 3322 1706 
Q 3322 1066 3130 698 
Q 2938 331 2570 128 
Q 2203 -75 1769 -75 
Q 1072 -75 642 372 
Q 213 819 213 1659 
z
M 791 1659 
Q 791 1022 1069 705 
Q 1347 388 1769 388 
Q 2188 388 2466 706 
Q 2744 1025 2744 1678 
Q 2744 2294 2464 2611 
Q 2184 2928 1769 2928 
Q 1347 2928 1069 2612 
Q 791 2297 791 1659 
z
" id="ArialMT-6f" transform="scale(0.015625)"/>
      <path d="M 409 0 
L 409 4581 
L 972 4581 
L 972 0 
L 409 0 
z
" id="ArialMT-6c" transform="scale(0.015625)"/>
      <path d="M 2588 409 
Q 2275 144 1986 34 
Q 1697 -75 1366 -75 
Q 819 -75 525 192 
Q 231 459 231 875 
Q 231 1119 342 1320 
Q 453 1522 633 1644 
Q 813 1766 1038 1828 
Q 1203 1872 1538 1913 
Q 2219 1994 2541 2106 
Q 2544 2222 2544 2253 
Q 2544 2597 2384 2738 
Q 2169 2928 1744 2928 
Q 1347 2928 1158 2789 
Q 969 2650 878 2297 
L 328 2372 
Q 403 2725 575 2942 
Q 747 3159 1072 3276 
Q 1397 3394 1825 3394 
Q 2250 3394 2515 3294 
Q 2781 3194 2906 3042 
Q 3031 2891 3081 2659 
Q 3109 2516 3109 2141 
L 3109 1391 
Q 3109 606 3145 398 
Q 3181 191 3288 0 
L 2700 0 
Q 2613 175 2588 409 
z
M 2541 1666 
Q 2234 1541 1622 1453 
Q 1275 1403 1131 1340 
Q 988 1278 909 1158 
Q 831 1038 831 891 
Q 831 666 1001 516 
Q 1172 366 1500 366 
Q 1825 366 2078 508 
Q 2331 650 2450 897 
Q 2541 1088 2541 1459 
L 2541 1666 
z
" id="ArialMT-61" transform="scale(0.015625)"/>
      <path d="M 416 0 
L 416 3319 
L 922 3319 
L 922 2816 
Q 1116 3169 1280 3281 
Q 1444 3394 1641 3394 
Q 1925 3394 2219 3213 
L 2025 2691 
Q 1819 2813 1613 2813 
Q 1428 2813 1281 2702 
Q 1134 2591 1072 2394 
Q 978 2094 978 1738 
L 978 0 
L 416 0 
z
" id="ArialMT-72" transform="scale(0.015625)"/>
      <path d="M 425 3934 
L 425 4581 
L 988 4581 
L 988 3934 
L 425 3934 
z
M 425 0 
L 425 3319 
L 988 3319 
L 988 0 
L 425 0 
z
" id="ArialMT-69" transform="scale(0.015625)"/>
      <path d="M 2575 0 
L 2575 419 
Q 2259 -75 1647 -75 
Q 1250 -75 917 144 
Q 584 363 401 755 
Q 219 1147 219 1656 
Q 219 2153 384 2558 
Q 550 2963 881 3178 
Q 1213 3394 1622 3394 
Q 1922 3394 2156 3267 
Q 2391 3141 2538 2938 
L 2538 4581 
L 3097 4581 
L 3097 0 
L 2575 0 
z
M 797 1656 
Q 797 1019 1065 703 
Q 1334 388 1700 388 
Q 2069 388 2326 689 
Q 2584 991 2584 1609 
Q 2584 2291 2321 2609 
Q 2059 2928 1675 2928 
Q 1300 2928 1048 2622 
Q 797 2316 797 1656 
z
" id="ArialMT-64" transform="scale(0.015625)"/>
      <path d="M 2694 1069 
L 3275 997 
Q 3138 488 2766 206 
Q 2394 -75 1816 -75 
Q 1088 -75 661 373 
Q 234 822 234 1631 
Q 234 2469 665 2931 
Q 1097 3394 1784 3394 
Q 2450 3394 2872 2941 
Q 3294 2488 3294 1666 
Q 3294 1616 3291 1516 
L 816 1516 
Q 847 969 1125 678 
Q 1403 388 1819 388 
Q 2128 388 2347 550 
Q 2566 713 2694 1069 
z
M 847 1978 
L 2700 1978 
Q 2663 2397 2488 2606 
Q 2219 2931 1791 2931 
Q 1403 2931 1139 2672 
Q 875 2413 847 1978 
z
" id="ArialMT-65" transform="scale(0.015625)"/>
      <path id="ArialMT-20" transform="scale(0.015625)"/>
      <path d="M 619 0 
L 619 3319 
L 1181 3319 
L 1181 0 
L 619 0 
z
M 590 3731 
L 1005 4606 
L 1743 4606 
L 1055 3731 
L 590 3731 
z
" id="ArialMT-ed" transform="scale(0.015625)"/>
      <path d="M 2538 -1272 
L 2538 353 
Q 2406 169 2170 47 
Q 1934 -75 1669 -75 
Q 1078 -75 651 397 
Q 225 869 225 1691 
Q 225 2191 398 2587 
Q 572 2984 901 3189 
Q 1231 3394 1625 3394 
Q 2241 3394 2594 2875 
L 2594 3319 
L 3100 3319 
L 3100 -1272 
L 2538 -1272 
z
M 803 1669 
Q 803 1028 1072 708 
Q 1341 388 1716 388 
Q 2075 388 2334 692 
Q 2594 997 2594 1619 
Q 2594 2281 2320 2615 
Q 2047 2950 1678 2950 
Q 1313 2950 1058 2639 
Q 803 2328 803 1669 
z
" id="ArialMT-71" transform="scale(0.015625)"/>
      <path d="M 2597 0 
L 2597 488 
Q 2209 -75 1544 -75 
Q 1250 -75 995 37 
Q 741 150 617 320 
Q 494 491 444 738 
Q 409 903 409 1263 
L 409 3319 
L 972 3319 
L 972 1478 
Q 972 1038 1006 884 
Q 1059 663 1231 536 
Q 1403 409 1656 409 
Q 1909 409 2131 539 
Q 2353 669 2445 892 
Q 2538 1116 2538 1541 
L 2538 3319 
L 3100 3319 
L 3100 0 
L 2597 0 
z
" id="ArialMT-75" transform="scale(0.015625)"/>
      <path d="M 422 0 
L 422 3319 
L 928 3319 
L 928 2847 
Q 1294 3394 1984 3394 
Q 2284 3394 2536 3286 
Q 2788 3178 2913 3003 
Q 3038 2828 3088 2588 
Q 3119 2431 3119 2041 
L 3119 0 
L 2556 0 
L 2556 2019 
Q 2556 2363 2490 2533 
Q 2425 2703 2258 2804 
Q 2091 2906 1866 2906 
Q 1506 2906 1245 2678 
Q 984 2450 984 1813 
L 984 0 
L 422 0 
z
" id="ArialMT-6e" transform="scale(0.015625)"/>
      <path d="M 525 0 
L 525 4581 
L 3616 4581 
L 3616 4041 
L 1131 4041 
L 1131 2622 
L 3281 2622 
L 3281 2081 
L 1131 2081 
L 1131 0 
L 525 0 
z
" id="ArialMT-46" transform="scale(0.015625)"/>
      <path d="M 422 0 
L 422 3319 
L 925 3319 
L 925 2853 
Q 1081 3097 1340 3245 
Q 1600 3394 1931 3394 
Q 2300 3394 2536 3241 
Q 2772 3088 2869 2813 
Q 3263 3394 3894 3394 
Q 4388 3394 4653 3120 
Q 4919 2847 4919 2278 
L 4919 0 
L 4359 0 
L 4359 2091 
Q 4359 2428 4304 2576 
Q 4250 2725 4106 2815 
Q 3963 2906 3769 2906 
Q 3419 2906 3187 2673 
Q 2956 2441 2956 1928 
L 2956 0 
L 2394 0 
L 2394 2156 
Q 2394 2531 2256 2718 
Q 2119 2906 1806 2906 
Q 1569 2906 1367 2781 
Q 1166 2656 1075 2415 
Q 984 2175 984 1722 
L 984 0 
L 422 0 
z
" id="ArialMT-6d" transform="scale(0.015625)"/>
      <path d="M 1650 503 
L 1731 6 
Q 1494 -44 1306 -44 
Q 1000 -44 831 53 
Q 663 150 594 308 
Q 525 466 525 972 
L 525 2881 
L 113 2881 
L 113 3319 
L 525 3319 
L 525 4141 
L 1084 4478 
L 1084 3319 
L 1650 3319 
L 1650 2881 
L 1084 2881 
L 1084 941 
Q 1084 700 1114 631 
Q 1144 563 1211 522 
Q 1278 481 1403 481 
Q 1497 481 1650 503 
z
" id="ArialMT-74" transform="scale(0.015625)"/>
      <path d="M 569 0 
L 569 641 
L 1209 641 
L 1209 0 
Q 1209 -353 1084 -570 
Q 959 -788 688 -906 
L 531 -666 
Q 709 -588 793 -436 
Q 878 -284 888 0 
L 569 0 
z
" id="ArialMT-2c" transform="scale(0.015625)"/>
      <path d="M 422 -1272 
L 422 3319 
L 934 3319 
L 934 2888 
Q 1116 3141 1344 3267 
Q 1572 3394 1897 3394 
Q 2322 3394 2647 3175 
Q 2972 2956 3137 2557 
Q 3303 2159 3303 1684 
Q 3303 1175 3120 767 
Q 2938 359 2589 142 
Q 2241 -75 1856 -75 
Q 1575 -75 1351 44 
Q 1128 163 984 344 
L 984 -1272 
L 422 -1272 
z
M 931 1641 
Q 931 1000 1190 694 
Q 1450 388 1819 388 
Q 2194 388 2461 705 
Q 2728 1022 2728 1688 
Q 2728 2322 2467 2637 
Q 2206 2953 1844 2953 
Q 1484 2953 1207 2617 
Q 931 2281 931 1641 
z
" id="ArialMT-70" transform="scale(0.015625)"/>
      <path d="M 47 0 
L 1259 1725 
L 138 3319 
L 841 3319 
L 1350 2541 
Q 1494 2319 1581 2169 
Q 1719 2375 1834 2534 
L 2394 3319 
L 3066 3319 
L 1919 1756 
L 3153 0 
L 2463 0 
L 1781 1031 
L 1600 1309 
L 728 0 
L 47 0 
z
" id="ArialMT-78" transform="scale(0.015625)"/>
      <path d="M 469 0 
L 469 4581 
L 2188 4581 
Q 2713 4581 3030 4442 
Q 3347 4303 3526 4014 
Q 3706 3725 3706 3409 
Q 3706 3116 3547 2856 
Q 3388 2597 3066 2438 
Q 3481 2316 3704 2022 
Q 3928 1728 3928 1328 
Q 3928 1006 3792 729 
Q 3656 453 3456 303 
Q 3256 153 2954 76 
Q 2653 0 2216 0 
L 469 0 
z
M 1075 2656 
L 2066 2656 
Q 2469 2656 2644 2709 
Q 2875 2778 2992 2937 
Q 3109 3097 3109 3338 
Q 3109 3566 3000 3739 
Q 2891 3913 2687 3977 
Q 2484 4041 1991 4041 
L 1075 4041 
L 1075 2656 
z
M 1075 541 
L 2216 541 
Q 2509 541 2628 563 
Q 2838 600 2978 687 
Q 3119 775 3209 942 
Q 3300 1109 3300 1328 
Q 3300 1584 3169 1773 
Q 3038 1963 2805 2039 
Q 2572 2116 2134 2116 
L 1075 2116 
L 1075 541 
z
" id="ArialMT-42" transform="scale(0.015625)"/>
      <path d="M 203 1375 
L 203 1941 
L 1931 1941 
L 1931 1375 
L 203 1375 
z
" id="ArialMT-2d" transform="scale(0.015625)"/>
     </defs>
     <use xlink:href="#ArialMT-45"/>
     <use x="66.699219" xlink:href="#ArialMT-73"/>
     <use x="116.699219" xlink:href="#ArialMT-63"/>
     <use x="166.699219" xlink:href="#ArialMT-6f"/>
     <use x="222.314453" xlink:href="#ArialMT-6c"/>
     <use x="244.53125" xlink:href="#ArialMT-61"/>
     <use x="300.146484" xlink:href="#ArialMT-72"/>
     <use x="333.447266" xlink:href="#ArialMT-69"/>
     <use x="355.664062" xlink:href="#ArialMT-64"/>
     <use x="411.279297" xlink:href="#ArialMT-61"/>
     <use x="466.894531" xlink:href="#ArialMT-64"/>
     <use x="522.509766" xlink:href="#ArialMT-65"/>
     <use x="578.125" xlink:href="#ArialMT-20"/>
     <use x="605.908203" xlink:href="#ArialMT-6c"/>
     <use x="628.125" xlink:href="#ArialMT-ed"/>
     <use x="655.908203" xlink:href="#ArialMT-71"/>
     <use x="711.523438" xlink:href="#ArialMT-75"/>
     <use x="767.138672" xlink:href="#ArialMT-69"/>
     <use x="789.355469" xlink:href="#ArialMT-64"/>
     <use x="844.970703" xlink:href="#ArialMT-61"/>
     <use x="900.585938" xlink:href="#ArialMT-20"/>
     <use x="928.369141" xlink:href="#ArialMT-45"/>
     <use x="995.068359" xlink:href="#ArialMT-6e"/>
     <use x="1050.683594" xlink:href="#ArialMT-73"/>
     <use x="1100.683594" xlink:href="#ArialMT-69"/>
     <use x="1122.900391" xlink:href="#ArialMT-6e"/>
     <use x="1178.515625" xlink:href="#ArialMT-6f"/>
     <use x="1234.130859" xlink:href="#ArialMT-20"/>
     <use x="1261.914062" xlink:href="#ArialMT-46"/>
     <use x="1322.998047" xlink:href="#ArialMT-75"/>
     <use x="1378.613281" xlink:href="#ArialMT-6e"/>
     <use x="1434.228516" xlink:href="#ArialMT-64"/>
     <use x="1489.84375" xlink:href="#ArialMT-61"/>
     <use x="1545.458984" xlink:href="#ArialMT-6d"/>
     <use x="1628.759766" xlink:href="#ArialMT-65"/>
     <use x="1684.375" xlink:href="#ArialMT-6e"/>
     <use x="1739.990234" xlink:href="#ArialMT-74"/>
     <use x="1767.773438" xlink:href="#ArialMT-61"/>
     <use x="1823.388672" xlink:href="#ArialMT-6c"/>
     <use x="1845.605469" xlink:href="#ArialMT-2c"/>
     <use x="1873.388672" xlink:href="#ArialMT-20"/>
     <use x="1901.171875" xlink:href="#ArialMT-70"/>
     <use x="1956.787109" xlink:href="#ArialMT-6f"/>
     <use x="2012.402344" xlink:href="#ArialMT-72"/>
     <use x="2045.703125" xlink:href="#ArialMT-20"/>
     <use x="2073.486328" xlink:href="#ArialMT-73"/>
     <use x="2123.486328" xlink:href="#ArialMT-65"/>
     <use x="2179.101562" xlink:href="#ArialMT-78"/>
     <use x="2229.101562" xlink:href="#ArialMT-6f"/>
     <use x="2284.716797" xlink:href="#ArialMT-2c"/>
     <use x="2312.5" xlink:href="#ArialMT-20"/>
     <use x="2340.283203" xlink:href="#ArialMT-42"/>
     <use x="2406.982422" xlink:href="#ArialMT-72"/>
     <use x="2440.283203" xlink:href="#ArialMT-61"/>
     <use x="2495.898438" xlink:href="#ArialMT-73"/>
     <use x="2545.898438" xlink:href="#ArialMT-69"/>
     <use x="2568.115234" xlink:href="#ArialMT-6c"/>
     <use x="2590.332031" xlink:href="#ArialMT-2c"/>
     <use x="2618.115234" xlink:href="#ArialMT-20"/>
     <use x="2645.898438" xlink:href="#ArialMT-32"/>
     <use x="2701.513672" xlink:href="#ArialMT-30"/>
     <use x="2757.128906" xlink:href="#ArialMT-31"/>
     <use x="2812.744141" xlink:href="#ArialMT-32"/>
     <use x="2868.359375" xlink:href="#ArialMT-2d"/>
     <use x="2901.660156" xlink:href="#ArialMT-32"/>
     <use x="2957.275391" xlink:href="#ArialMT-30"/>
     <use x="3012.890625" xlink:href="#ArialMT-32"/>
     <use x="3068.505859" xlink:href="#ArialMT-31"/>
    </g>
   </g>
   <g id="legend_1">
    <g id="patch_7">
     <path d="M 955.396562 117.679688 
L 1029.1 117.679688 
Q 1031.3 117.679688 1031.3 115.479687 
L 1031.3 85.46 
Q 1031.3 83.26 1029.1 83.26 
L 955.396562 83.26 
Q 953.196562 83.26 953.196562 85.46 
L 953.196562 115.479687 
Q 953.196562 117.679688 955.396562 117.679688 
z
" style="fill:#eaeaf2;opacity:0.8;stroke:#cccccc;stroke-linejoin:miter;"/>
    </g>
    <g id="line2d_82">
     <path d="M 957.596562 91.683594 
L 979.596562 91.683594 
" style="fill:none;stroke:#4c72b0;stroke-linecap:round;stroke-width:3;"/>
    </g>
    <g id="line2d_83">
     <g>
      <use style="fill:#4c72b0;stroke:#4c72b0;" x="968.596562" xlink:href="#m7f6c15474a" y="91.683594"/>
     </g>
    </g>
    <g id="text_17">
     <!-- Homem -->
     <g style="fill:#262626;" transform="translate(988.396562 95.533594)scale(0.11 -0.11)">
      <defs>
       <path d="M 513 0 
L 513 4581 
L 1119 4581 
L 1119 2700 
L 3500 2700 
L 3500 4581 
L 4106 4581 
L 4106 0 
L 3500 0 
L 3500 2159 
L 1119 2159 
L 1119 0 
L 513 0 
z
" id="ArialMT-48" transform="scale(0.015625)"/>
      </defs>
      <use xlink:href="#ArialMT-48"/>
      <use x="72.216797" xlink:href="#ArialMT-6f"/>
      <use x="127.832031" xlink:href="#ArialMT-6d"/>
      <use x="211.132812" xlink:href="#ArialMT-65"/>
      <use x="266.748047" xlink:href="#ArialMT-6d"/>
     </g>
    </g>
    <g id="line2d_84">
     <path d="M 957.596562 107.243438 
L 979.596562 107.243438 
" style="fill:none;stroke:#dd8452;stroke-linecap:round;stroke-width:3;"/>
    </g>
    <g id="line2d_85">
     <g>
      <use style="fill:#dd8452;stroke:#dd8452;" x="968.596562" xlink:href="#me9fd03b5ec" y="107.243438"/>
     </g>
    </g>
    <g id="text_18">
     <!-- Mulher -->
     <g style="fill:#262626;" transform="translate(988.396562 111.093438)scale(0.11 -0.11)">
      <defs>
       <path d="M 475 0 
L 475 4581 
L 1388 4581 
L 2472 1338 
Q 2622 884 2691 659 
Q 2769 909 2934 1394 
L 4031 4581 
L 4847 4581 
L 4847 0 
L 4263 0 
L 4263 3834 
L 2931 0 
L 2384 0 
L 1059 3900 
L 1059 0 
L 475 0 
z
" id="ArialMT-4d" transform="scale(0.015625)"/>
       <path d="M 422 0 
L 422 4581 
L 984 4581 
L 984 2938 
Q 1378 3394 1978 3394 
Q 2347 3394 2619 3248 
Q 2891 3103 3008 2847 
Q 3125 2591 3125 2103 
L 3125 0 
L 2563 0 
L 2563 2103 
Q 2563 2525 2380 2717 
Q 2197 2909 1863 2909 
Q 1613 2909 1392 2779 
Q 1172 2650 1078 2428 
Q 984 2206 984 1816 
L 984 0 
L 422 0 
z
" id="ArialMT-68" transform="scale(0.015625)"/>
      </defs>
      <use xlink:href="#ArialMT-4d"/>
      <use x="83.300781" xlink:href="#ArialMT-75"/>
      <use x="138.916016" xlink:href="#ArialMT-6c"/>
      <use x="161.132812" xlink:href="#ArialMT-68"/>
      <use x="216.748047" xlink:href="#ArialMT-65"/>
      <use x="272.363281" xlink:href="#ArialMT-72"/>
     </g>
    </g>
   </g>
  </g>
 </g>
 <defs>
  <clipPath id="pc71eb00660">
   <rect height="489.24" width="892.8" x="144" y="77.76"/>
  </clipPath>
 </defs>
</svg>
