<?xml version="1.0" encoding="utf-8" standalone="no"?>
<!DOCTYPE svg PUBLIC "-//W3C//DTD SVG 1.1//EN"
  "http://www.w3.org/Graphics/SVG/1.1/DTD/svg11.dtd">
<svg height="648pt" version="1.1" viewBox="0 0 1152 648" width="1152pt" xmlns="http://www.w3.org/2000/svg" xmlns:xlink="http://www.w3.org/1999/xlink">
 <metadata>
  <rdf:RDF xmlns:cc="http://creativecommons.org/ns#" xmlns:dc="http://purl.org/dc/elements/1.1/" xmlns:rdf="http://www.w3.org/1999/02/22-rdf-syntax-ns#">
   <cc:Work>
    <dc:type rdf:resource="http://purl.org/dc/dcmitype/StillImage"/>
    <dc:date>2021-10-26T16:58:24.636612</dc:date>
    <dc:format>image/svg+xml</dc:format>
    <dc:creator>
     <cc:Agent>
      <dc:title>Matplotlib v3.4.3, https://matplotlib.org/</dc:title>
     </cc:Agent>
    </dc:creator>
   </cc:Work>
  </rdf:RDF>
 </metadata>
 <defs>
  <style type="text/css">*{stroke-linecap:butt;stroke-linejoin:round;}</style>
 </defs>
 <g id="figure_1">
  <g id="patch_1">
   <path d="M 0 648 
L 1152 648 
L 1152 0 
L 0 0 
z
" style="fill:#ffffff;"/>
  </g>
  <g id="axes_1">
   <g id="patch_2">
    <path d="M 144 567 
L 1036.8 567 
L 1036.8 77.76 
L 144 77.76 
z
" style="fill:#eaeaf2;"/>
   </g>
   <g id="matplotlib.axis_1">
    <g id="xtick_1">
     <g id="line2d_1">
      <path clip-path="url(#p217bc29dc5)" d="M 144 567 
L 144 77.76 
" style="fill:none;stroke:#ffffff;stroke-linecap:round;"/>
     </g>
     <g id="line2d_2">
      <defs>
       <path d="M 0 0 
L 0 5 
" id="m2fedecfea6" style="stroke:#262626;"/>
      </defs>
      <g>
       <use style="fill:#262626;stroke:#262626;" x="144" xlink:href="#m2fedecfea6" y="567"/>
      </g>
     </g>
     <g id="text_1">
      <!-- 2012 -->
      <g style="fill:#262626;" transform="translate(146.843672 599.968125)rotate(-90)scale(0.11 -0.11)">
       <defs>
        <path d="M 3222 541 
L 3222 0 
L 194 0 
Q 188 203 259 391 
Q 375 700 629 1000 
Q 884 1300 1366 1694 
Q 2113 2306 2375 2664 
Q 2638 3022 2638 3341 
Q 2638 3675 2398 3904 
Q 2159 4134 1775 4134 
Q 1369 4134 1125 3890 
Q 881 3647 878 3216 
L 300 3275 
Q 359 3922 746 4261 
Q 1134 4600 1788 4600 
Q 2447 4600 2831 4234 
Q 3216 3869 3216 3328 
Q 3216 3053 3103 2787 
Q 2991 2522 2730 2228 
Q 2469 1934 1863 1422 
Q 1356 997 1212 845 
Q 1069 694 975 541 
L 3222 541 
z
" id="ArialMT-32" transform="scale(0.015625)"/>
        <path d="M 266 2259 
Q 266 3072 433 3567 
Q 600 4063 929 4331 
Q 1259 4600 1759 4600 
Q 2128 4600 2406 4451 
Q 2684 4303 2865 4023 
Q 3047 3744 3150 3342 
Q 3253 2941 3253 2259 
Q 3253 1453 3087 958 
Q 2922 463 2592 192 
Q 2263 -78 1759 -78 
Q 1097 -78 719 397 
Q 266 969 266 2259 
z
M 844 2259 
Q 844 1131 1108 757 
Q 1372 384 1759 384 
Q 2147 384 2411 759 
Q 2675 1134 2675 2259 
Q 2675 3391 2411 3762 
Q 2147 4134 1753 4134 
Q 1366 4134 1134 3806 
Q 844 3388 844 2259 
z
" id="ArialMT-30" transform="scale(0.015625)"/>
        <path d="M 2384 0 
L 1822 0 
L 1822 3584 
Q 1619 3391 1289 3197 
Q 959 3003 697 2906 
L 697 3450 
Q 1169 3672 1522 3987 
Q 1875 4303 2022 4600 
L 2384 4600 
L 2384 0 
z
" id="ArialMT-31" transform="scale(0.015625)"/>
       </defs>
       <use xlink:href="#ArialMT-32"/>
       <use x="55.615234" xlink:href="#ArialMT-30"/>
       <use x="111.230469" xlink:href="#ArialMT-31"/>
       <use x="166.845703" xlink:href="#ArialMT-32"/>
      </g>
     </g>
    </g>
    <g id="xtick_2">
     <g id="line2d_3">
      <path clip-path="url(#p217bc29dc5)" d="M 243.2 567 
L 243.2 77.76 
" style="fill:none;stroke:#ffffff;stroke-linecap:round;"/>
     </g>
     <g id="line2d_4">
      <g>
       <use style="fill:#262626;stroke:#262626;" x="243.2" xlink:href="#m2fedecfea6" y="567"/>
      </g>
     </g>
     <g id="text_2">
      <!-- 2013 -->
      <g style="fill:#262626;" transform="translate(246.043672 599.968125)rotate(-90)scale(0.11 -0.11)">
       <defs>
        <path d="M 269 1209 
L 831 1284 
Q 928 806 1161 595 
Q 1394 384 1728 384 
Q 2125 384 2398 659 
Q 2672 934 2672 1341 
Q 2672 1728 2419 1979 
Q 2166 2231 1775 2231 
Q 1616 2231 1378 2169 
L 1441 2663 
Q 1497 2656 1531 2656 
Q 1891 2656 2178 2843 
Q 2466 3031 2466 3422 
Q 2466 3731 2256 3934 
Q 2047 4138 1716 4138 
Q 1388 4138 1169 3931 
Q 950 3725 888 3313 
L 325 3413 
Q 428 3978 793 4289 
Q 1159 4600 1703 4600 
Q 2078 4600 2393 4439 
Q 2709 4278 2876 4000 
Q 3044 3722 3044 3409 
Q 3044 3113 2884 2869 
Q 2725 2625 2413 2481 
Q 2819 2388 3044 2092 
Q 3269 1797 3269 1353 
Q 3269 753 2831 336 
Q 2394 -81 1725 -81 
Q 1122 -81 723 278 
Q 325 638 269 1209 
z
" id="ArialMT-33" transform="scale(0.015625)"/>
       </defs>
       <use xlink:href="#ArialMT-32"/>
       <use x="55.615234" xlink:href="#ArialMT-30"/>
       <use x="111.230469" xlink:href="#ArialMT-31"/>
       <use x="166.845703" xlink:href="#ArialMT-33"/>
      </g>
     </g>
    </g>
    <g id="xtick_3">
     <g id="line2d_5">
      <path clip-path="url(#p217bc29dc5)" d="M 342.4 567 
L 342.4 77.76 
" style="fill:none;stroke:#ffffff;stroke-linecap:round;"/>
     </g>
     <g id="line2d_6">
      <g>
       <use style="fill:#262626;stroke:#262626;" x="342.4" xlink:href="#m2fedecfea6" y="567"/>
      </g>
     </g>
     <g id="text_3">
      <!-- 2014 -->
      <g style="fill:#262626;" transform="translate(345.243672 599.968125)rotate(-90)scale(0.11 -0.11)">
       <defs>
        <path d="M 2069 0 
L 2069 1097 
L 81 1097 
L 81 1613 
L 2172 4581 
L 2631 4581 
L 2631 1613 
L 3250 1613 
L 3250 1097 
L 2631 1097 
L 2631 0 
L 2069 0 
z
M 2069 1613 
L 2069 3678 
L 634 1613 
L 2069 1613 
z
" id="ArialMT-34" transform="scale(0.015625)"/>
       </defs>
       <use xlink:href="#ArialMT-32"/>
       <use x="55.615234" xlink:href="#ArialMT-30"/>
       <use x="111.230469" xlink:href="#ArialMT-31"/>
       <use x="166.845703" xlink:href="#ArialMT-34"/>
      </g>
     </g>
    </g>
    <g id="xtick_4">
     <g id="line2d_7">
      <path clip-path="url(#p217bc29dc5)" d="M 441.6 567 
L 441.6 77.76 
" style="fill:none;stroke:#ffffff;stroke-linecap:round;"/>
     </g>
     <g id="line2d_8">
      <g>
       <use style="fill:#262626;stroke:#262626;" x="441.6" xlink:href="#m2fedecfea6" y="567"/>
      </g>
     </g>
     <g id="text_4">
      <!-- 2015 -->
      <g style="fill:#262626;" transform="translate(444.443672 599.968125)rotate(-90)scale(0.11 -0.11)">
       <defs>
        <path d="M 266 1200 
L 856 1250 
Q 922 819 1161 601 
Q 1400 384 1738 384 
Q 2144 384 2425 690 
Q 2706 997 2706 1503 
Q 2706 1984 2436 2262 
Q 2166 2541 1728 2541 
Q 1456 2541 1237 2417 
Q 1019 2294 894 2097 
L 366 2166 
L 809 4519 
L 3088 4519 
L 3088 3981 
L 1259 3981 
L 1013 2750 
Q 1425 3038 1878 3038 
Q 2478 3038 2890 2622 
Q 3303 2206 3303 1553 
Q 3303 931 2941 478 
Q 2500 -78 1738 -78 
Q 1113 -78 717 272 
Q 322 622 266 1200 
z
" id="ArialMT-35" transform="scale(0.015625)"/>
       </defs>
       <use xlink:href="#ArialMT-32"/>
       <use x="55.615234" xlink:href="#ArialMT-30"/>
       <use x="111.230469" xlink:href="#ArialMT-31"/>
       <use x="166.845703" xlink:href="#ArialMT-35"/>
      </g>
     </g>
    </g>
    <g id="xtick_5">
     <g id="line2d_9">
      <path clip-path="url(#p217bc29dc5)" d="M 540.8 567 
L 540.8 77.76 
" style="fill:none;stroke:#ffffff;stroke-linecap:round;"/>
     </g>
     <g id="line2d_10">
      <g>
       <use style="fill:#262626;stroke:#262626;" x="540.8" xlink:href="#m2fedecfea6" y="567"/>
      </g>
     </g>
     <g id="text_5">
      <!-- 2016 -->
      <g style="fill:#262626;" transform="translate(543.643672 599.968125)rotate(-90)scale(0.11 -0.11)">
       <defs>
        <path d="M 3184 3459 
L 2625 3416 
Q 2550 3747 2413 3897 
Q 2184 4138 1850 4138 
Q 1581 4138 1378 3988 
Q 1113 3794 959 3422 
Q 806 3050 800 2363 
Q 1003 2672 1297 2822 
Q 1591 2972 1913 2972 
Q 2475 2972 2870 2558 
Q 3266 2144 3266 1488 
Q 3266 1056 3080 686 
Q 2894 316 2569 119 
Q 2244 -78 1831 -78 
Q 1128 -78 684 439 
Q 241 956 241 2144 
Q 241 3472 731 4075 
Q 1159 4600 1884 4600 
Q 2425 4600 2770 4297 
Q 3116 3994 3184 3459 
z
M 888 1484 
Q 888 1194 1011 928 
Q 1134 663 1356 523 
Q 1578 384 1822 384 
Q 2178 384 2434 671 
Q 2691 959 2691 1453 
Q 2691 1928 2437 2201 
Q 2184 2475 1800 2475 
Q 1419 2475 1153 2201 
Q 888 1928 888 1484 
z
" id="ArialMT-36" transform="scale(0.015625)"/>
       </defs>
       <use xlink:href="#ArialMT-32"/>
       <use x="55.615234" xlink:href="#ArialMT-30"/>
       <use x="111.230469" xlink:href="#ArialMT-31"/>
       <use x="166.845703" xlink:href="#ArialMT-36"/>
      </g>
     </g>
    </g>
    <g id="xtick_6">
     <g id="line2d_11">
      <path clip-path="url(#p217bc29dc5)" d="M 640 567 
L 640 77.76 
" style="fill:none;stroke:#ffffff;stroke-linecap:round;"/>
     </g>
     <g id="line2d_12">
      <g>
       <use style="fill:#262626;stroke:#262626;" x="640" xlink:href="#m2fedecfea6" y="567"/>
      </g>
     </g>
     <g id="text_6">
      <!-- 2017 -->
      <g style="fill:#262626;" transform="translate(642.843672 599.968125)rotate(-90)scale(0.11 -0.11)">
       <defs>
        <path d="M 303 3981 
L 303 4522 
L 3269 4522 
L 3269 4084 
Q 2831 3619 2401 2847 
Q 1972 2075 1738 1259 
Q 1569 684 1522 0 
L 944 0 
Q 953 541 1156 1306 
Q 1359 2072 1739 2783 
Q 2119 3494 2547 3981 
L 303 3981 
z
" id="ArialMT-37" transform="scale(0.015625)"/>
       </defs>
       <use xlink:href="#ArialMT-32"/>
       <use x="55.615234" xlink:href="#ArialMT-30"/>
       <use x="111.230469" xlink:href="#ArialMT-31"/>
       <use x="166.845703" xlink:href="#ArialMT-37"/>
      </g>
     </g>
    </g>
    <g id="xtick_7">
     <g id="line2d_13">
      <path clip-path="url(#p217bc29dc5)" d="M 739.2 567 
L 739.2 77.76 
" style="fill:none;stroke:#ffffff;stroke-linecap:round;"/>
     </g>
     <g id="line2d_14">
      <g>
       <use style="fill:#262626;stroke:#262626;" x="739.2" xlink:href="#m2fedecfea6" y="567"/>
      </g>
     </g>
     <g id="text_7">
      <!-- 2018 -->
      <g style="fill:#262626;" transform="translate(742.043672 599.968125)rotate(-90)scale(0.11 -0.11)">
       <defs>
        <path d="M 1131 2484 
Q 781 2613 612 2850 
Q 444 3088 444 3419 
Q 444 3919 803 4259 
Q 1163 4600 1759 4600 
Q 2359 4600 2725 4251 
Q 3091 3903 3091 3403 
Q 3091 3084 2923 2848 
Q 2756 2613 2416 2484 
Q 2838 2347 3058 2040 
Q 3278 1734 3278 1309 
Q 3278 722 2862 322 
Q 2447 -78 1769 -78 
Q 1091 -78 675 323 
Q 259 725 259 1325 
Q 259 1772 486 2073 
Q 713 2375 1131 2484 
z
M 1019 3438 
Q 1019 3113 1228 2906 
Q 1438 2700 1772 2700 
Q 2097 2700 2305 2904 
Q 2513 3109 2513 3406 
Q 2513 3716 2298 3927 
Q 2084 4138 1766 4138 
Q 1444 4138 1231 3931 
Q 1019 3725 1019 3438 
z
M 838 1322 
Q 838 1081 952 856 
Q 1066 631 1291 507 
Q 1516 384 1775 384 
Q 2178 384 2440 643 
Q 2703 903 2703 1303 
Q 2703 1709 2433 1975 
Q 2163 2241 1756 2241 
Q 1359 2241 1098 1978 
Q 838 1716 838 1322 
z
" id="ArialMT-38" transform="scale(0.015625)"/>
       </defs>
       <use xlink:href="#ArialMT-32"/>
       <use x="55.615234" xlink:href="#ArialMT-30"/>
       <use x="111.230469" xlink:href="#ArialMT-31"/>
       <use x="166.845703" xlink:href="#ArialMT-38"/>
      </g>
     </g>
    </g>
    <g id="xtick_8">
     <g id="line2d_15">
      <path clip-path="url(#p217bc29dc5)" d="M 838.4 567 
L 838.4 77.76 
" style="fill:none;stroke:#ffffff;stroke-linecap:round;"/>
     </g>
     <g id="line2d_16">
      <g>
       <use style="fill:#262626;stroke:#262626;" x="838.4" xlink:href="#m2fedecfea6" y="567"/>
      </g>
     </g>
     <g id="text_8">
      <!-- 2019 -->
      <g style="fill:#262626;" transform="translate(841.243672 599.968125)rotate(-90)scale(0.11 -0.11)">
       <defs>
        <path d="M 350 1059 
L 891 1109 
Q 959 728 1153 556 
Q 1347 384 1650 384 
Q 1909 384 2104 503 
Q 2300 622 2425 820 
Q 2550 1019 2634 1356 
Q 2719 1694 2719 2044 
Q 2719 2081 2716 2156 
Q 2547 1888 2255 1720 
Q 1963 1553 1622 1553 
Q 1053 1553 659 1965 
Q 266 2378 266 3053 
Q 266 3750 677 4175 
Q 1088 4600 1706 4600 
Q 2153 4600 2523 4359 
Q 2894 4119 3086 3673 
Q 3278 3228 3278 2384 
Q 3278 1506 3087 986 
Q 2897 466 2520 194 
Q 2144 -78 1638 -78 
Q 1100 -78 759 220 
Q 419 519 350 1059 
z
M 2653 3081 
Q 2653 3566 2395 3850 
Q 2138 4134 1775 4134 
Q 1400 4134 1122 3828 
Q 844 3522 844 3034 
Q 844 2597 1108 2323 
Q 1372 2050 1759 2050 
Q 2150 2050 2401 2323 
Q 2653 2597 2653 3081 
z
" id="ArialMT-39" transform="scale(0.015625)"/>
       </defs>
       <use xlink:href="#ArialMT-32"/>
       <use x="55.615234" xlink:href="#ArialMT-30"/>
       <use x="111.230469" xlink:href="#ArialMT-31"/>
       <use x="166.845703" xlink:href="#ArialMT-39"/>
      </g>
     </g>
    </g>
    <g id="xtick_9">
     <g id="line2d_17">
      <path clip-path="url(#p217bc29dc5)" d="M 937.6 567 
L 937.6 77.76 
" style="fill:none;stroke:#ffffff;stroke-linecap:round;"/>
     </g>
     <g id="line2d_18">
      <g>
       <use style="fill:#262626;stroke:#262626;" x="937.6" xlink:href="#m2fedecfea6" y="567"/>
      </g>
     </g>
     <g id="text_9">
      <!-- 2020 -->
      <g style="fill:#262626;" transform="translate(940.443672 599.968125)rotate(-90)scale(0.11 -0.11)">
       <use xlink:href="#ArialMT-32"/>
       <use x="55.615234" xlink:href="#ArialMT-30"/>
       <use x="111.230469" xlink:href="#ArialMT-32"/>
       <use x="166.845703" xlink:href="#ArialMT-30"/>
      </g>
     </g>
    </g>
    <g id="xtick_10">
     <g id="line2d_19">
      <path clip-path="url(#p217bc29dc5)" d="M 1036.8 567 
L 1036.8 77.76 
" style="fill:none;stroke:#ffffff;stroke-linecap:round;"/>
     </g>
     <g id="line2d_20">
      <g>
       <use style="fill:#262626;stroke:#262626;" x="1036.8" xlink:href="#m2fedecfea6" y="567"/>
      </g>
     </g>
     <g id="text_10">
      <!-- 2021 -->
      <g style="fill:#262626;" transform="translate(1039.643672 599.968125)rotate(-90)scale(0.11 -0.11)">
       <use xlink:href="#ArialMT-32"/>
       <use x="55.615234" xlink:href="#ArialMT-30"/>
       <use x="111.230469" xlink:href="#ArialMT-32"/>
       <use x="166.845703" xlink:href="#ArialMT-31"/>
      </g>
     </g>
    </g>
    <g id="xtick_11">
     <g id="line2d_21">
      <path clip-path="url(#p217bc29dc5)" d="M 168.8 567 
L 168.8 77.76 
" style="fill:none;stroke:#ffffff;stroke-linecap:round;"/>
     </g>
     <g id="line2d_22">
      <defs>
       <path d="M 0 0 
L 0 2.5 
" id="m37100de290" style="stroke:#262626;stroke-width:0.75;"/>
      </defs>
      <g>
       <use style="fill:#262626;stroke:#262626;stroke-width:0.75;" x="168.8" xlink:href="#m37100de290" y="567"/>
      </g>
     </g>
    </g>
    <g id="xtick_12">
     <g id="line2d_23">
      <path clip-path="url(#p217bc29dc5)" d="M 193.6 567 
L 193.6 77.76 
" style="fill:none;stroke:#ffffff;stroke-linecap:round;"/>
     </g>
     <g id="line2d_24">
      <g>
       <use style="fill:#262626;stroke:#262626;stroke-width:0.75;" x="193.6" xlink:href="#m37100de290" y="567"/>
      </g>
     </g>
    </g>
    <g id="xtick_13">
     <g id="line2d_25">
      <path clip-path="url(#p217bc29dc5)" d="M 218.4 567 
L 218.4 77.76 
" style="fill:none;stroke:#ffffff;stroke-linecap:round;"/>
     </g>
     <g id="line2d_26">
      <g>
       <use style="fill:#262626;stroke:#262626;stroke-width:0.75;" x="218.4" xlink:href="#m37100de290" y="567"/>
      </g>
     </g>
    </g>
    <g id="xtick_14">
     <g id="line2d_27">
      <path clip-path="url(#p217bc29dc5)" d="M 268 567 
L 268 77.76 
" style="fill:none;stroke:#ffffff;stroke-linecap:round;"/>
     </g>
     <g id="line2d_28">
      <g>
       <use style="fill:#262626;stroke:#262626;stroke-width:0.75;" x="268" xlink:href="#m37100de290" y="567"/>
      </g>
     </g>
    </g>
    <g id="xtick_15">
     <g id="line2d_29">
      <path clip-path="url(#p217bc29dc5)" d="M 292.8 567 
L 292.8 77.76 
" style="fill:none;stroke:#ffffff;stroke-linecap:round;"/>
     </g>
     <g id="line2d_30">
      <g>
       <use style="fill:#262626;stroke:#262626;stroke-width:0.75;" x="292.8" xlink:href="#m37100de290" y="567"/>
      </g>
     </g>
    </g>
    <g id="xtick_16">
     <g id="line2d_31">
      <path clip-path="url(#p217bc29dc5)" d="M 317.6 567 
L 317.6 77.76 
" style="fill:none;stroke:#ffffff;stroke-linecap:round;"/>
     </g>
     <g id="line2d_32">
      <g>
       <use style="fill:#262626;stroke:#262626;stroke-width:0.75;" x="317.6" xlink:href="#m37100de290" y="567"/>
      </g>
     </g>
    </g>
    <g id="xtick_17">
     <g id="line2d_33">
      <path clip-path="url(#p217bc29dc5)" d="M 367.2 567 
L 367.2 77.76 
" style="fill:none;stroke:#ffffff;stroke-linecap:round;"/>
     </g>
     <g id="line2d_34">
      <g>
       <use style="fill:#262626;stroke:#262626;stroke-width:0.75;" x="367.2" xlink:href="#m37100de290" y="567"/>
      </g>
     </g>
    </g>
    <g id="xtick_18">
     <g id="line2d_35">
      <path clip-path="url(#p217bc29dc5)" d="M 392 567 
L 392 77.76 
" style="fill:none;stroke:#ffffff;stroke-linecap:round;"/>
     </g>
     <g id="line2d_36">
      <g>
       <use style="fill:#262626;stroke:#262626;stroke-width:0.75;" x="392" xlink:href="#m37100de290" y="567"/>
      </g>
     </g>
    </g>
    <g id="xtick_19">
     <g id="line2d_37">
      <path clip-path="url(#p217bc29dc5)" d="M 416.8 567 
L 416.8 77.76 
" style="fill:none;stroke:#ffffff;stroke-linecap:round;"/>
     </g>
     <g id="line2d_38">
      <g>
       <use style="fill:#262626;stroke:#262626;stroke-width:0.75;" x="416.8" xlink:href="#m37100de290" y="567"/>
      </g>
     </g>
    </g>
    <g id="xtick_20">
     <g id="line2d_39">
      <path clip-path="url(#p217bc29dc5)" d="M 466.4 567 
L 466.4 77.76 
" style="fill:none;stroke:#ffffff;stroke-linecap:round;"/>
     </g>
     <g id="line2d_40">
      <g>
       <use style="fill:#262626;stroke:#262626;stroke-width:0.75;" x="466.4" xlink:href="#m37100de290" y="567"/>
      </g>
     </g>
    </g>
    <g id="xtick_21">
     <g id="line2d_41">
      <path clip-path="url(#p217bc29dc5)" d="M 491.2 567 
L 491.2 77.76 
" style="fill:none;stroke:#ffffff;stroke-linecap:round;"/>
     </g>
     <g id="line2d_42">
      <g>
       <use style="fill:#262626;stroke:#262626;stroke-width:0.75;" x="491.2" xlink:href="#m37100de290" y="567"/>
      </g>
     </g>
    </g>
    <g id="xtick_22">
     <g id="line2d_43">
      <path clip-path="url(#p217bc29dc5)" d="M 516 567 
L 516 77.76 
" style="fill:none;stroke:#ffffff;stroke-linecap:round;"/>
     </g>
     <g id="line2d_44">
      <g>
       <use style="fill:#262626;stroke:#262626;stroke-width:0.75;" x="516" xlink:href="#m37100de290" y="567"/>
      </g>
     </g>
    </g>
    <g id="xtick_23">
     <g id="line2d_45">
      <path clip-path="url(#p217bc29dc5)" d="M 565.6 567 
L 565.6 77.76 
" style="fill:none;stroke:#ffffff;stroke-linecap:round;"/>
     </g>
     <g id="line2d_46">
      <g>
       <use style="fill:#262626;stroke:#262626;stroke-width:0.75;" x="565.6" xlink:href="#m37100de290" y="567"/>
      </g>
     </g>
    </g>
    <g id="xtick_24">
     <g id="line2d_47">
      <path clip-path="url(#p217bc29dc5)" d="M 590.4 567 
L 590.4 77.76 
" style="fill:none;stroke:#ffffff;stroke-linecap:round;"/>
     </g>
     <g id="line2d_48">
      <g>
       <use style="fill:#262626;stroke:#262626;stroke-width:0.75;" x="590.4" xlink:href="#m37100de290" y="567"/>
      </g>
     </g>
    </g>
    <g id="xtick_25">
     <g id="line2d_49">
      <path clip-path="url(#p217bc29dc5)" d="M 615.2 567 
L 615.2 77.76 
" style="fill:none;stroke:#ffffff;stroke-linecap:round;"/>
     </g>
     <g id="line2d_50">
      <g>
       <use style="fill:#262626;stroke:#262626;stroke-width:0.75;" x="615.2" xlink:href="#m37100de290" y="567"/>
      </g>
     </g>
    </g>
    <g id="xtick_26">
     <g id="line2d_51">
      <path clip-path="url(#p217bc29dc5)" d="M 664.8 567 
L 664.8 77.76 
" style="fill:none;stroke:#ffffff;stroke-linecap:round;"/>
     </g>
     <g id="line2d_52">
      <g>
       <use style="fill:#262626;stroke:#262626;stroke-width:0.75;" x="664.8" xlink:href="#m37100de290" y="567"/>
      </g>
     </g>
    </g>
    <g id="xtick_27">
     <g id="line2d_53">
      <path clip-path="url(#p217bc29dc5)" d="M 689.6 567 
L 689.6 77.76 
" style="fill:none;stroke:#ffffff;stroke-linecap:round;"/>
     </g>
     <g id="line2d_54">
      <g>
       <use style="fill:#262626;stroke:#262626;stroke-width:0.75;" x="689.6" xlink:href="#m37100de290" y="567"/>
      </g>
     </g>
    </g>
    <g id="xtick_28">
     <g id="line2d_55">
      <path clip-path="url(#p217bc29dc5)" d="M 714.4 567 
L 714.4 77.76 
" style="fill:none;stroke:#ffffff;stroke-linecap:round;"/>
     </g>
     <g id="line2d_56">
      <g>
       <use style="fill:#262626;stroke:#262626;stroke-width:0.75;" x="714.4" xlink:href="#m37100de290" y="567"/>
      </g>
     </g>
    </g>
    <g id="xtick_29">
     <g id="line2d_57">
      <path clip-path="url(#p217bc29dc5)" d="M 764 567 
L 764 77.76 
" style="fill:none;stroke:#ffffff;stroke-linecap:round;"/>
     </g>
     <g id="line2d_58">
      <g>
       <use style="fill:#262626;stroke:#262626;stroke-width:0.75;" x="764" xlink:href="#m37100de290" y="567"/>
      </g>
     </g>
    </g>
    <g id="xtick_30">
     <g id="line2d_59">
      <path clip-path="url(#p217bc29dc5)" d="M 788.8 567 
L 788.8 77.76 
" style="fill:none;stroke:#ffffff;stroke-linecap:round;"/>
     </g>
     <g id="line2d_60">
      <g>
       <use style="fill:#262626;stroke:#262626;stroke-width:0.75;" x="788.8" xlink:href="#m37100de290" y="567"/>
      </g>
     </g>
    </g>
    <g id="xtick_31">
     <g id="line2d_61">
      <path clip-path="url(#p217bc29dc5)" d="M 813.6 567 
L 813.6 77.76 
" style="fill:none;stroke:#ffffff;stroke-linecap:round;"/>
     </g>
     <g id="line2d_62">
      <g>
       <use style="fill:#262626;stroke:#262626;stroke-width:0.75;" x="813.6" xlink:href="#m37100de290" y="567"/>
      </g>
     </g>
    </g>
    <g id="xtick_32">
     <g id="line2d_63">
      <path clip-path="url(#p217bc29dc5)" d="M 863.2 567 
L 863.2 77.76 
" style="fill:none;stroke:#ffffff;stroke-linecap:round;"/>
     </g>
     <g id="line2d_64">
      <g>
       <use style="fill:#262626;stroke:#262626;stroke-width:0.75;" x="863.2" xlink:href="#m37100de290" y="567"/>
      </g>
     </g>
    </g>
    <g id="xtick_33">
     <g id="line2d_65">
      <path clip-path="url(#p217bc29dc5)" d="M 888 567 
L 888 77.76 
" style="fill:none;stroke:#ffffff;stroke-linecap:round;"/>
     </g>
     <g id="line2d_66">
      <g>
       <use style="fill:#262626;stroke:#262626;stroke-width:0.75;" x="888" xlink:href="#m37100de290" y="567"/>
      </g>
     </g>
    </g>
    <g id="xtick_34">
     <g id="line2d_67">
      <path clip-path="url(#p217bc29dc5)" d="M 912.8 567 
L 912.8 77.76 
" style="fill:none;stroke:#ffffff;stroke-linecap:round;"/>
     </g>
     <g id="line2d_68">
      <g>
       <use style="fill:#262626;stroke:#262626;stroke-width:0.75;" x="912.8" xlink:href="#m37100de290" y="567"/>
      </g>
     </g>
    </g>
    <g id="xtick_35">
     <g id="line2d_69">
      <path clip-path="url(#p217bc29dc5)" d="M 962.4 567 
L 962.4 77.76 
" style="fill:none;stroke:#ffffff;stroke-linecap:round;"/>
     </g>
     <g id="line2d_70">
      <g>
       <use style="fill:#262626;stroke:#262626;stroke-width:0.75;" x="962.4" xlink:href="#m37100de290" y="567"/>
      </g>
     </g>
    </g>
    <g id="xtick_36">
     <g id="line2d_71">
      <path clip-path="url(#p217bc29dc5)" d="M 987.2 567 
L 987.2 77.76 
" style="fill:none;stroke:#ffffff;stroke-linecap:round;"/>
     </g>
     <g id="line2d_72">
      <g>
       <use style="fill:#262626;stroke:#262626;stroke-width:0.75;" x="987.2" xlink:href="#m37100de290" y="567"/>
      </g>
     </g>
    </g>
    <g id="xtick_37">
     <g id="line2d_73">
      <path clip-path="url(#p217bc29dc5)" d="M 1012 567 
L 1012 77.76 
" style="fill:none;stroke:#ffffff;stroke-linecap:round;"/>
     </g>
     <g id="line2d_74">
      <g>
       <use style="fill:#262626;stroke:#262626;stroke-width:0.75;" x="1012" xlink:href="#m37100de290" y="567"/>
      </g>
     </g>
    </g>
   </g>
   <g id="matplotlib.axis_2">
    <g id="ytick_1">
     <g id="line2d_75">
      <path clip-path="url(#p217bc29dc5)" d="M 144 556.718388 
L 1036.8 556.718388 
" style="fill:none;stroke:#ffffff;stroke-linecap:round;"/>
     </g>
     <g id="text_11">
      <!-- 66 -->
      <g style="fill:#262626;" transform="translate(123.265938 560.655184)scale(0.11 -0.11)">
       <use xlink:href="#ArialMT-36"/>
       <use x="55.615234" xlink:href="#ArialMT-36"/>
      </g>
     </g>
    </g>
    <g id="ytick_2">
     <g id="line2d_76">
      <path clip-path="url(#p217bc29dc5)" d="M 144 523.921774 
L 1036.8 523.921774 
" style="fill:none;stroke:#ffffff;stroke-linecap:round;"/>
     </g>
     <g id="text_12">
      <!-- 67 -->
      <g style="fill:#262626;" transform="translate(123.265938 527.858571)scale(0.11 -0.11)">
       <use xlink:href="#ArialMT-36"/>
       <use x="55.615234" xlink:href="#ArialMT-37"/>
      </g>
     </g>
    </g>
    <g id="ytick_3">
     <g id="line2d_77">
      <path clip-path="url(#p217bc29dc5)" d="M 144 491.12516 
L 1036.8 491.12516 
" style="fill:none;stroke:#ffffff;stroke-linecap:round;"/>
     </g>
     <g id="text_13">
      <!-- 68 -->
      <g style="fill:#262626;" transform="translate(123.265938 495.061957)scale(0.11 -0.11)">
       <use xlink:href="#ArialMT-36"/>
       <use x="55.615234" xlink:href="#ArialMT-38"/>
      </g>
     </g>
    </g>
    <g id="ytick_4">
     <g id="line2d_78">
      <path clip-path="url(#p217bc29dc5)" d="M 144 458.328547 
L 1036.8 458.328547 
" style="fill:none;stroke:#ffffff;stroke-linecap:round;"/>
     </g>
     <g id="text_14">
      <!-- 69 -->
      <g style="fill:#262626;" transform="translate(123.265938 462.265344)scale(0.11 -0.11)">
       <use xlink:href="#ArialMT-36"/>
       <use x="55.615234" xlink:href="#ArialMT-39"/>
      </g>
     </g>
    </g>
    <g id="ytick_5">
     <g id="line2d_79">
      <path clip-path="url(#p217bc29dc5)" d="M 144 425.531933 
L 1036.8 425.531933 
" style="fill:none;stroke:#ffffff;stroke-linecap:round;"/>
     </g>
     <g id="text_15">
      <!-- 70 -->
      <g style="fill:#262626;" transform="translate(123.265938 429.46873)scale(0.11 -0.11)">
       <use xlink:href="#ArialMT-37"/>
       <use x="55.615234" xlink:href="#ArialMT-30"/>
      </g>
     </g>
    </g>
    <g id="ytick_6">
     <g id="line2d_80">
      <path clip-path="url(#p217bc29dc5)" d="M 144 392.735319 
L 1036.8 392.735319 
" style="fill:none;stroke:#ffffff;stroke-linecap:round;"/>
     </g>
     <g id="text_16">
      <!-- 71 -->
      <g style="fill:#262626;" transform="translate(123.265938 396.672116)scale(0.11 -0.11)">
       <use xlink:href="#ArialMT-37"/>
       <use x="55.615234" xlink:href="#ArialMT-31"/>
      </g>
     </g>
    </g>
    <g id="ytick_7">
     <g id="line2d_81">
      <path clip-path="url(#p217bc29dc5)" d="M 144 359.938706 
L 1036.8 359.938706 
" style="fill:none;stroke:#ffffff;stroke-linecap:round;"/>
     </g>
     <g id="text_17">
      <!-- 72 -->
      <g style="fill:#262626;" transform="translate(123.265938 363.875503)scale(0.11 -0.11)">
       <use xlink:href="#ArialMT-37"/>
       <use x="55.615234" xlink:href="#ArialMT-32"/>
      </g>
     </g>
    </g>
    <g id="ytick_8">
     <g id="line2d_82">
      <path clip-path="url(#p217bc29dc5)" d="M 144 327.142092 
L 1036.8 327.142092 
" style="fill:none;stroke:#ffffff;stroke-linecap:round;"/>
     </g>
     <g id="text_18">
      <!-- 73 -->
      <g style="fill:#262626;" transform="translate(123.265938 331.078889)scale(0.11 -0.11)">
       <use xlink:href="#ArialMT-37"/>
       <use x="55.615234" xlink:href="#ArialMT-33"/>
      </g>
     </g>
    </g>
    <g id="ytick_9">
     <g id="line2d_83">
      <path clip-path="url(#p217bc29dc5)" d="M 144 294.345478 
L 1036.8 294.345478 
" style="fill:none;stroke:#ffffff;stroke-linecap:round;"/>
     </g>
     <g id="text_19">
      <!-- 74 -->
      <g style="fill:#262626;" transform="translate(123.265938 298.282275)scale(0.11 -0.11)">
       <use xlink:href="#ArialMT-37"/>
       <use x="55.615234" xlink:href="#ArialMT-34"/>
      </g>
     </g>
    </g>
    <g id="ytick_10">
     <g id="line2d_84">
      <path clip-path="url(#p217bc29dc5)" d="M 144 261.548865 
L 1036.8 261.548865 
" style="fill:none;stroke:#ffffff;stroke-linecap:round;"/>
     </g>
     <g id="text_20">
      <!-- 75 -->
      <g style="fill:#262626;" transform="translate(123.265938 265.485662)scale(0.11 -0.11)">
       <use xlink:href="#ArialMT-37"/>
       <use x="55.615234" xlink:href="#ArialMT-35"/>
      </g>
     </g>
    </g>
    <g id="ytick_11">
     <g id="line2d_85">
      <path clip-path="url(#p217bc29dc5)" d="M 144 228.752251 
L 1036.8 228.752251 
" style="fill:none;stroke:#ffffff;stroke-linecap:round;"/>
     </g>
     <g id="text_21">
      <!-- 76 -->
      <g style="fill:#262626;" transform="translate(123.265938 232.689048)scale(0.11 -0.11)">
       <use xlink:href="#ArialMT-37"/>
       <use x="55.615234" xlink:href="#ArialMT-36"/>
      </g>
     </g>
    </g>
    <g id="ytick_12">
     <g id="line2d_86">
      <path clip-path="url(#p217bc29dc5)" d="M 144 195.955637 
L 1036.8 195.955637 
" style="fill:none;stroke:#ffffff;stroke-linecap:round;"/>
     </g>
     <g id="text_22">
      <!-- 77 -->
      <g style="fill:#262626;" transform="translate(123.265938 199.892434)scale(0.11 -0.11)">
       <use xlink:href="#ArialMT-37"/>
       <use x="55.615234" xlink:href="#ArialMT-37"/>
      </g>
     </g>
    </g>
    <g id="ytick_13">
     <g id="line2d_87">
      <path clip-path="url(#p217bc29dc5)" d="M 144 163.159024 
L 1036.8 163.159024 
" style="fill:none;stroke:#ffffff;stroke-linecap:round;"/>
     </g>
     <g id="text_23">
      <!-- 78 -->
      <g style="fill:#262626;" transform="translate(123.265938 167.095821)scale(0.11 -0.11)">
       <use xlink:href="#ArialMT-37"/>
       <use x="55.615234" xlink:href="#ArialMT-38"/>
      </g>
     </g>
    </g>
    <g id="ytick_14">
     <g id="line2d_88">
      <path clip-path="url(#p217bc29dc5)" d="M 144 130.36241 
L 1036.8 130.36241 
" style="fill:none;stroke:#ffffff;stroke-linecap:round;"/>
     </g>
     <g id="text_24">
      <!-- 79 -->
      <g style="fill:#262626;" transform="translate(123.265938 134.299207)scale(0.11 -0.11)">
       <use xlink:href="#ArialMT-37"/>
       <use x="55.615234" xlink:href="#ArialMT-39"/>
      </g>
     </g>
    </g>
    <g id="ytick_15">
     <g id="line2d_89">
      <path clip-path="url(#p217bc29dc5)" d="M 144 97.565797 
L 1036.8 97.565797 
" style="fill:none;stroke:#ffffff;stroke-linecap:round;"/>
     </g>
     <g id="text_25">
      <!-- 80 -->
      <g style="fill:#262626;" transform="translate(123.265938 101.502593)scale(0.11 -0.11)">
       <use xlink:href="#ArialMT-38"/>
       <use x="55.615234" xlink:href="#ArialMT-30"/>
      </g>
     </g>
    </g>
   </g>
   <g id="line2d_90">
    <path clip-path="url(#p217bc29dc5)" d="M 144 544.761818 
L 168.8 440.296542 
L 193.6 427.628873 
L 218.4 516.022899 
L 243.2 409.468743 
L 268 447.158845 
L 292.8 356.373229 
L 317.6 465.273146 
L 342.4 506.968947 
L 367.2 373.49311 
L 392 298.31366 
L 416.8 398.85382 
L 441.6 452.16595 
L 466.4 292.382121 
L 491.2 269.975509 
L 516 419.249656 
L 540.8 316.488799 
L 565.6 185.564906 
L 590.4 99.998182 
L 615.2 240.274931 
L 640 345.758352 
L 664.8 364.144359 
L 689.6 348.144525 
L 714.4 504.211455 
L 739.2 339.627538 
L 764 438.556887 
L 788.8 331.037223 
L 813.6 393.174843 
L 838.4 334.726939 
L 863.2 277.273645 
L 888 290.855705 
L 912.8 457.369543 
L 937.6 404.274476 
L 962.4 372.411292 
L 987.2 324.519982 
L 1012 452.337912 
L 1036.8 370.793795 
L 1061.6 140.65835 
" style="fill:none;stroke:#4c72b0;stroke-linecap:round;stroke-width:3;"/>
    <defs>
     <path d="M 0 6 
C 1.591219 6 3.117479 5.367802 4.242641 4.242641 
C 5.367802 3.117479 6 1.591219 6 0 
C 6 -1.591219 5.367802 -3.117479 4.242641 -4.242641 
C 3.117479 -5.367802 1.591219 -6 0 -6 
C -1.591219 -6 -3.117479 -5.367802 -4.242641 -4.242641 
C -5.367802 -3.117479 -6 -1.591219 -6 0 
C -6 1.591219 -5.367802 3.117479 -4.242641 4.242641 
C -3.117479 5.367802 -1.591219 6 0 6 
z
" id="m579b21832c" style="stroke:#4c72b0;"/>
    </defs>
    <g clip-path="url(#p217bc29dc5)">
     <use style="fill:#4c72b0;stroke:#4c72b0;" x="144" xlink:href="#m579b21832c" y="544.761818"/>
     <use style="fill:#4c72b0;stroke:#4c72b0;" x="168.8" xlink:href="#m579b21832c" y="440.296542"/>
     <use style="fill:#4c72b0;stroke:#4c72b0;" x="193.6" xlink:href="#m579b21832c" y="427.628873"/>
     <use style="fill:#4c72b0;stroke:#4c72b0;" x="218.4" xlink:href="#m579b21832c" y="516.022899"/>
     <use style="fill:#4c72b0;stroke:#4c72b0;" x="243.2" xlink:href="#m579b21832c" y="409.468743"/>
     <use style="fill:#4c72b0;stroke:#4c72b0;" x="268" xlink:href="#m579b21832c" y="447.158845"/>
     <use style="fill:#4c72b0;stroke:#4c72b0;" x="292.8" xlink:href="#m579b21832c" y="356.373229"/>
     <use style="fill:#4c72b0;stroke:#4c72b0;" x="317.6" xlink:href="#m579b21832c" y="465.273146"/>
     <use style="fill:#4c72b0;stroke:#4c72b0;" x="342.4" xlink:href="#m579b21832c" y="506.968947"/>
     <use style="fill:#4c72b0;stroke:#4c72b0;" x="367.2" xlink:href="#m579b21832c" y="373.49311"/>
     <use style="fill:#4c72b0;stroke:#4c72b0;" x="392" xlink:href="#m579b21832c" y="298.31366"/>
     <use style="fill:#4c72b0;stroke:#4c72b0;" x="416.8" xlink:href="#m579b21832c" y="398.85382"/>
     <use style="fill:#4c72b0;stroke:#4c72b0;" x="441.6" xlink:href="#m579b21832c" y="452.16595"/>
     <use style="fill:#4c72b0;stroke:#4c72b0;" x="466.4" xlink:href="#m579b21832c" y="292.382121"/>
     <use style="fill:#4c72b0;stroke:#4c72b0;" x="491.2" xlink:href="#m579b21832c" y="269.975509"/>
     <use style="fill:#4c72b0;stroke:#4c72b0;" x="516" xlink:href="#m579b21832c" y="419.249656"/>
     <use style="fill:#4c72b0;stroke:#4c72b0;" x="540.8" xlink:href="#m579b21832c" y="316.488799"/>
     <use style="fill:#4c72b0;stroke:#4c72b0;" x="565.6" xlink:href="#m579b21832c" y="185.564906"/>
     <use style="fill:#4c72b0;stroke:#4c72b0;" x="590.4" xlink:href="#m579b21832c" y="99.998182"/>
     <use style="fill:#4c72b0;stroke:#4c72b0;" x="615.2" xlink:href="#m579b21832c" y="240.274931"/>
     <use style="fill:#4c72b0;stroke:#4c72b0;" x="640" xlink:href="#m579b21832c" y="345.758352"/>
     <use style="fill:#4c72b0;stroke:#4c72b0;" x="664.8" xlink:href="#m579b21832c" y="364.144359"/>
     <use style="fill:#4c72b0;stroke:#4c72b0;" x="689.6" xlink:href="#m579b21832c" y="348.144525"/>
     <use style="fill:#4c72b0;stroke:#4c72b0;" x="714.4" xlink:href="#m579b21832c" y="504.211455"/>
     <use style="fill:#4c72b0;stroke:#4c72b0;" x="739.2" xlink:href="#m579b21832c" y="339.627538"/>
     <use style="fill:#4c72b0;stroke:#4c72b0;" x="764" xlink:href="#m579b21832c" y="438.556887"/>
     <use style="fill:#4c72b0;stroke:#4c72b0;" x="788.8" xlink:href="#m579b21832c" y="331.037223"/>
     <use style="fill:#4c72b0;stroke:#4c72b0;" x="813.6" xlink:href="#m579b21832c" y="393.174843"/>
     <use style="fill:#4c72b0;stroke:#4c72b0;" x="838.4" xlink:href="#m579b21832c" y="334.726939"/>
     <use style="fill:#4c72b0;stroke:#4c72b0;" x="863.2" xlink:href="#m579b21832c" y="277.273645"/>
     <use style="fill:#4c72b0;stroke:#4c72b0;" x="888" xlink:href="#m579b21832c" y="290.855705"/>
     <use style="fill:#4c72b0;stroke:#4c72b0;" x="912.8" xlink:href="#m579b21832c" y="457.369543"/>
     <use style="fill:#4c72b0;stroke:#4c72b0;" x="937.6" xlink:href="#m579b21832c" y="404.274476"/>
     <use style="fill:#4c72b0;stroke:#4c72b0;" x="962.4" xlink:href="#m579b21832c" y="372.411292"/>
     <use style="fill:#4c72b0;stroke:#4c72b0;" x="987.2" xlink:href="#m579b21832c" y="324.519982"/>
     <use style="fill:#4c72b0;stroke:#4c72b0;" x="1012" xlink:href="#m579b21832c" y="452.337912"/>
     <use style="fill:#4c72b0;stroke:#4c72b0;" x="1036.8" xlink:href="#m579b21832c" y="370.793795"/>
     <use style="fill:#4c72b0;stroke:#4c72b0;" x="1061.6" xlink:href="#m579b21832c" y="140.65835"/>
    </g>
   </g>
   <g id="line2d_91">
    <path clip-path="url(#p217bc29dc5)" d="M 144 431.894178 
L 168.8 347.293935 
L 193.6 253.360971 
L 218.4 431.993662 
L 243.2 399.931531 
L 268 310.116388 
L 292.8 223.677644 
L 317.6 303.434668 
L 342.4 395.653703 
L 367.2 311.919888 
L 392 181.192094 
L 416.8 228.547708 
L 441.6 319.580523 
L 466.4 288.333254 
L 491.2 264.763666 
L 516 320.965765 
L 540.8 344.880624 
L 565.6 275.833942 
L 590.4 191.148361 
L 615.2 168.902658 
L 640 305.99937 
L 664.8 335.826399 
L 689.6 238.77238 
L 714.4 264.818912 
L 739.2 385.727954 
L 764 297.198368 
L 788.8 207.492289 
L 813.6 360.902093 
L 838.4 418.266409 
L 863.2 350.328274 
L 888 187.63742 
L 912.8 321.621495 
L 937.6 268.034723 
L 962.4 121.012774 
L 987.2 147.9445 
L 1012 223.466021 
L 1036.8 163.937736 
L 1061.6 137.260385 
" style="fill:none;stroke:#dd8452;stroke-linecap:round;stroke-width:3;"/>
    <defs>
     <path d="M 0 6 
C 1.591219 6 3.117479 5.367802 4.242641 4.242641 
C 5.367802 3.117479 6 1.591219 6 0 
C 6 -1.591219 5.367802 -3.117479 4.242641 -4.242641 
C 3.117479 -5.367802 1.591219 -6 0 -6 
C -1.591219 -6 -3.117479 -5.367802 -4.242641 -4.242641 
C -5.367802 -3.117479 -6 -1.591219 -6 0 
C -6 1.591219 -5.367802 3.117479 -4.242641 4.242641 
C -3.117479 5.367802 -1.591219 6 0 6 
z
" id="mb52bb38345" style="stroke:#dd8452;"/>
    </defs>
    <g clip-path="url(#p217bc29dc5)">
     <use style="fill:#dd8452;stroke:#dd8452;" x="144" xlink:href="#mb52bb38345" y="431.894178"/>
     <use style="fill:#dd8452;stroke:#dd8452;" x="168.8" xlink:href="#mb52bb38345" y="347.293935"/>
     <use style="fill:#dd8452;stroke:#dd8452;" x="193.6" xlink:href="#mb52bb38345" y="253.360971"/>
     <use style="fill:#dd8452;stroke:#dd8452;" x="218.4" xlink:href="#mb52bb38345" y="431.993662"/>
     <use style="fill:#dd8452;stroke:#dd8452;" x="243.2" xlink:href="#mb52bb38345" y="399.931531"/>
     <use style="fill:#dd8452;stroke:#dd8452;" x="268" xlink:href="#mb52bb38345" y="310.116388"/>
     <use style="fill:#dd8452;stroke:#dd8452;" x="292.8" xlink:href="#mb52bb38345" y="223.677644"/>
     <use style="fill:#dd8452;stroke:#dd8452;" x="317.6" xlink:href="#mb52bb38345" y="303.434668"/>
     <use style="fill:#dd8452;stroke:#dd8452;" x="342.4" xlink:href="#mb52bb38345" y="395.653703"/>
     <use style="fill:#dd8452;stroke:#dd8452;" x="367.2" xlink:href="#mb52bb38345" y="311.919888"/>
     <use style="fill:#dd8452;stroke:#dd8452;" x="392" xlink:href="#mb52bb38345" y="181.192094"/>
     <use style="fill:#dd8452;stroke:#dd8452;" x="416.8" xlink:href="#mb52bb38345" y="228.547708"/>
     <use style="fill:#dd8452;stroke:#dd8452;" x="441.6" xlink:href="#mb52bb38345" y="319.580523"/>
     <use style="fill:#dd8452;stroke:#dd8452;" x="466.4" xlink:href="#mb52bb38345" y="288.333254"/>
     <use style="fill:#dd8452;stroke:#dd8452;" x="491.2" xlink:href="#mb52bb38345" y="264.763666"/>
     <use style="fill:#dd8452;stroke:#dd8452;" x="516" xlink:href="#mb52bb38345" y="320.965765"/>
     <use style="fill:#dd8452;stroke:#dd8452;" x="540.8" xlink:href="#mb52bb38345" y="344.880624"/>
     <use style="fill:#dd8452;stroke:#dd8452;" x="565.6" xlink:href="#mb52bb38345" y="275.833942"/>
     <use style="fill:#dd8452;stroke:#dd8452;" x="590.4" xlink:href="#mb52bb38345" y="191.148361"/>
     <use style="fill:#dd8452;stroke:#dd8452;" x="615.2" xlink:href="#mb52bb38345" y="168.902658"/>
     <use style="fill:#dd8452;stroke:#dd8452;" x="640" xlink:href="#mb52bb38345" y="305.99937"/>
     <use style="fill:#dd8452;stroke:#dd8452;" x="664.8" xlink:href="#mb52bb38345" y="335.826399"/>
     <use style="fill:#dd8452;stroke:#dd8452;" x="689.6" xlink:href="#mb52bb38345" y="238.77238"/>
     <use style="fill:#dd8452;stroke:#dd8452;" x="714.4" xlink:href="#mb52bb38345" y="264.818912"/>
     <use style="fill:#dd8452;stroke:#dd8452;" x="739.2" xlink:href="#mb52bb38345" y="385.727954"/>
     <use style="fill:#dd8452;stroke:#dd8452;" x="764" xlink:href="#mb52bb38345" y="297.198368"/>
     <use style="fill:#dd8452;stroke:#dd8452;" x="788.8" xlink:href="#mb52bb38345" y="207.492289"/>
     <use style="fill:#dd8452;stroke:#dd8452;" x="813.6" xlink:href="#mb52bb38345" y="360.902093"/>
     <use style="fill:#dd8452;stroke:#dd8452;" x="838.4" xlink:href="#mb52bb38345" y="418.266409"/>
     <use style="fill:#dd8452;stroke:#dd8452;" x="863.2" xlink:href="#mb52bb38345" y="350.328274"/>
     <use style="fill:#dd8452;stroke:#dd8452;" x="888" xlink:href="#mb52bb38345" y="187.63742"/>
     <use style="fill:#dd8452;stroke:#dd8452;" x="912.8" xlink:href="#mb52bb38345" y="321.621495"/>
     <use style="fill:#dd8452;stroke:#dd8452;" x="937.6" xlink:href="#mb52bb38345" y="268.034723"/>
     <use style="fill:#dd8452;stroke:#dd8452;" x="962.4" xlink:href="#mb52bb38345" y="121.012774"/>
     <use style="fill:#dd8452;stroke:#dd8452;" x="987.2" xlink:href="#mb52bb38345" y="147.9445"/>
     <use style="fill:#dd8452;stroke:#dd8452;" x="1012" xlink:href="#mb52bb38345" y="223.466021"/>
     <use style="fill:#dd8452;stroke:#dd8452;" x="1036.8" xlink:href="#mb52bb38345" y="163.937736"/>
     <use style="fill:#dd8452;stroke:#dd8452;" x="1061.6" xlink:href="#mb52bb38345" y="137.260385"/>
    </g>
   </g>
   <g id="patch_3">
    <path d="M 144 567 
L 144 77.76 
" style="fill:none;stroke:#ffffff;stroke-linecap:square;stroke-linejoin:miter;stroke-width:1.25;"/>
   </g>
   <g id="patch_4">
    <path d="M 1036.8 567 
L 1036.8 77.76 
" style="fill:none;stroke:#ffffff;stroke-linecap:square;stroke-linejoin:miter;stroke-width:1.25;"/>
   </g>
   <g id="patch_5">
    <path d="M 144 567 
L 1036.8 567 
" style="fill:none;stroke:#ffffff;stroke-linecap:square;stroke-linejoin:miter;stroke-width:1.25;"/>
   </g>
   <g id="patch_6">
    <path d="M 144 77.76 
L 1036.8 77.76 
" style="fill:none;stroke:#ffffff;stroke-linecap:square;stroke-linejoin:miter;stroke-width:1.25;"/>
   </g>
   <g id="text_26">
    <!-- Escolaridade líquida Ensino Médio, por sexo, São Paulo, 2012-2021 -->
    <g style="fill:#262626;" transform="translate(348.47875 71.76)scale(0.16 -0.16)">
     <defs>
      <path d="M 506 0 
L 506 4581 
L 3819 4581 
L 3819 4041 
L 1113 4041 
L 1113 2638 
L 3647 2638 
L 3647 2100 
L 1113 2100 
L 1113 541 
L 3925 541 
L 3925 0 
L 506 0 
z
" id="ArialMT-45" transform="scale(0.015625)"/>
      <path d="M 197 991 
L 753 1078 
Q 800 744 1014 566 
Q 1228 388 1613 388 
Q 2000 388 2187 545 
Q 2375 703 2375 916 
Q 2375 1106 2209 1216 
Q 2094 1291 1634 1406 
Q 1016 1563 777 1677 
Q 538 1791 414 1992 
Q 291 2194 291 2438 
Q 291 2659 392 2848 
Q 494 3038 669 3163 
Q 800 3259 1026 3326 
Q 1253 3394 1513 3394 
Q 1903 3394 2198 3281 
Q 2494 3169 2634 2976 
Q 2775 2784 2828 2463 
L 2278 2388 
Q 2241 2644 2061 2787 
Q 1881 2931 1553 2931 
Q 1166 2931 1000 2803 
Q 834 2675 834 2503 
Q 834 2394 903 2306 
Q 972 2216 1119 2156 
Q 1203 2125 1616 2013 
Q 2213 1853 2448 1751 
Q 2684 1650 2818 1456 
Q 2953 1263 2953 975 
Q 2953 694 2789 445 
Q 2625 197 2315 61 
Q 2006 -75 1616 -75 
Q 969 -75 630 194 
Q 291 463 197 991 
z
" id="ArialMT-73" transform="scale(0.015625)"/>
      <path d="M 2588 1216 
L 3141 1144 
Q 3050 572 2676 248 
Q 2303 -75 1759 -75 
Q 1078 -75 664 370 
Q 250 816 250 1647 
Q 250 2184 428 2587 
Q 606 2991 970 3192 
Q 1334 3394 1763 3394 
Q 2303 3394 2647 3120 
Q 2991 2847 3088 2344 
L 2541 2259 
Q 2463 2594 2264 2762 
Q 2066 2931 1784 2931 
Q 1359 2931 1093 2626 
Q 828 2322 828 1663 
Q 828 994 1084 691 
Q 1341 388 1753 388 
Q 2084 388 2306 591 
Q 2528 794 2588 1216 
z
" id="ArialMT-63" transform="scale(0.015625)"/>
      <path d="M 213 1659 
Q 213 2581 725 3025 
Q 1153 3394 1769 3394 
Q 2453 3394 2887 2945 
Q 3322 2497 3322 1706 
Q 3322 1066 3130 698 
Q 2938 331 2570 128 
Q 2203 -75 1769 -75 
Q 1072 -75 642 372 
Q 213 819 213 1659 
z
M 791 1659 
Q 791 1022 1069 705 
Q 1347 388 1769 388 
Q 2188 388 2466 706 
Q 2744 1025 2744 1678 
Q 2744 2294 2464 2611 
Q 2184 2928 1769 2928 
Q 1347 2928 1069 2612 
Q 791 2297 791 1659 
z
" id="ArialMT-6f" transform="scale(0.015625)"/>
      <path d="M 409 0 
L 409 4581 
L 972 4581 
L 972 0 
L 409 0 
z
" id="ArialMT-6c" transform="scale(0.015625)"/>
      <path d="M 2588 409 
Q 2275 144 1986 34 
Q 1697 -75 1366 -75 
Q 819 -75 525 192 
Q 231 459 231 875 
Q 231 1119 342 1320 
Q 453 1522 633 1644 
Q 813 1766 1038 1828 
Q 1203 1872 1538 1913 
Q 2219 1994 2541 2106 
Q 2544 2222 2544 2253 
Q 2544 2597 2384 2738 
Q 2169 2928 1744 2928 
Q 1347 2928 1158 2789 
Q 969 2650 878 2297 
L 328 2372 
Q 403 2725 575 2942 
Q 747 3159 1072 3276 
Q 1397 3394 1825 3394 
Q 2250 3394 2515 3294 
Q 2781 3194 2906 3042 
Q 3031 2891 3081 2659 
Q 3109 2516 3109 2141 
L 3109 1391 
Q 3109 606 3145 398 
Q 3181 191 3288 0 
L 2700 0 
Q 2613 175 2588 409 
z
M 2541 1666 
Q 2234 1541 1622 1453 
Q 1275 1403 1131 1340 
Q 988 1278 909 1158 
Q 831 1038 831 891 
Q 831 666 1001 516 
Q 1172 366 1500 366 
Q 1825 366 2078 508 
Q 2331 650 2450 897 
Q 2541 1088 2541 1459 
L 2541 1666 
z
" id="ArialMT-61" transform="scale(0.015625)"/>
      <path d="M 416 0 
L 416 3319 
L 922 3319 
L 922 2816 
Q 1116 3169 1280 3281 
Q 1444 3394 1641 3394 
Q 1925 3394 2219 3213 
L 2025 2691 
Q 1819 2813 1613 2813 
Q 1428 2813 1281 2702 
Q 1134 2591 1072 2394 
Q 978 2094 978 1738 
L 978 0 
L 416 0 
z
" id="ArialMT-72" transform="scale(0.015625)"/>
      <path d="M 425 3934 
L 425 4581 
L 988 4581 
L 988 3934 
L 425 3934 
z
M 425 0 
L 425 3319 
L 988 3319 
L 988 0 
L 425 0 
z
" id="ArialMT-69" transform="scale(0.015625)"/>
      <path d="M 2575 0 
L 2575 419 
Q 2259 -75 1647 -75 
Q 1250 -75 917 144 
Q 584 363 401 755 
Q 219 1147 219 1656 
Q 219 2153 384 2558 
Q 550 2963 881 3178 
Q 1213 3394 1622 3394 
Q 1922 3394 2156 3267 
Q 2391 3141 2538 2938 
L 2538 4581 
L 3097 4581 
L 3097 0 
L 2575 0 
z
M 797 1656 
Q 797 1019 1065 703 
Q 1334 388 1700 388 
Q 2069 388 2326 689 
Q 2584 991 2584 1609 
Q 2584 2291 2321 2609 
Q 2059 2928 1675 2928 
Q 1300 2928 1048 2622 
Q 797 2316 797 1656 
z
" id="ArialMT-64" transform="scale(0.015625)"/>
      <path d="M 2694 1069 
L 3275 997 
Q 3138 488 2766 206 
Q 2394 -75 1816 -75 
Q 1088 -75 661 373 
Q 234 822 234 1631 
Q 234 2469 665 2931 
Q 1097 3394 1784 3394 
Q 2450 3394 2872 2941 
Q 3294 2488 3294 1666 
Q 3294 1616 3291 1516 
L 816 1516 
Q 847 969 1125 678 
Q 1403 388 1819 388 
Q 2128 388 2347 550 
Q 2566 713 2694 1069 
z
M 847 1978 
L 2700 1978 
Q 2663 2397 2488 2606 
Q 2219 2931 1791 2931 
Q 1403 2931 1139 2672 
Q 875 2413 847 1978 
z
" id="ArialMT-65" transform="scale(0.015625)"/>
      <path id="ArialMT-20" transform="scale(0.015625)"/>
      <path d="M 619 0 
L 619 3319 
L 1181 3319 
L 1181 0 
L 619 0 
z
M 590 3731 
L 1005 4606 
L 1743 4606 
L 1055 3731 
L 590 3731 
z
" id="ArialMT-ed" transform="scale(0.015625)"/>
      <path d="M 2538 -1272 
L 2538 353 
Q 2406 169 2170 47 
Q 1934 -75 1669 -75 
Q 1078 -75 651 397 
Q 225 869 225 1691 
Q 225 2191 398 2587 
Q 572 2984 901 3189 
Q 1231 3394 1625 3394 
Q 2241 3394 2594 2875 
L 2594 3319 
L 3100 3319 
L 3100 -1272 
L 2538 -1272 
z
M 803 1669 
Q 803 1028 1072 708 
Q 1341 388 1716 388 
Q 2075 388 2334 692 
Q 2594 997 2594 1619 
Q 2594 2281 2320 2615 
Q 2047 2950 1678 2950 
Q 1313 2950 1058 2639 
Q 803 2328 803 1669 
z
" id="ArialMT-71" transform="scale(0.015625)"/>
      <path d="M 2597 0 
L 2597 488 
Q 2209 -75 1544 -75 
Q 1250 -75 995 37 
Q 741 150 617 320 
Q 494 491 444 738 
Q 409 903 409 1263 
L 409 3319 
L 972 3319 
L 972 1478 
Q 972 1038 1006 884 
Q 1059 663 1231 536 
Q 1403 409 1656 409 
Q 1909 409 2131 539 
Q 2353 669 2445 892 
Q 2538 1116 2538 1541 
L 2538 3319 
L 3100 3319 
L 3100 0 
L 2597 0 
z
" id="ArialMT-75" transform="scale(0.015625)"/>
      <path d="M 422 0 
L 422 3319 
L 928 3319 
L 928 2847 
Q 1294 3394 1984 3394 
Q 2284 3394 2536 3286 
Q 2788 3178 2913 3003 
Q 3038 2828 3088 2588 
Q 3119 2431 3119 2041 
L 3119 0 
L 2556 0 
L 2556 2019 
Q 2556 2363 2490 2533 
Q 2425 2703 2258 2804 
Q 2091 2906 1866 2906 
Q 1506 2906 1245 2678 
Q 984 2450 984 1813 
L 984 0 
L 422 0 
z
" id="ArialMT-6e" transform="scale(0.015625)"/>
      <path d="M 475 0 
L 475 4581 
L 1388 4581 
L 2472 1338 
Q 2622 884 2691 659 
Q 2769 909 2934 1394 
L 4031 4581 
L 4847 4581 
L 4847 0 
L 4263 0 
L 4263 3834 
L 2931 0 
L 2384 0 
L 1059 3900 
L 1059 0 
L 475 0 
z
" id="ArialMT-4d" transform="scale(0.015625)"/>
      <path d="M 2694 1069 
L 3275 997 
Q 3138 488 2766 206 
Q 2394 -75 1816 -75 
Q 1088 -75 661 373 
Q 234 822 234 1631 
Q 234 2469 665 2931 
Q 1097 3394 1784 3394 
Q 2450 3394 2872 2941 
Q 3294 2488 3294 1666 
Q 3294 1616 3291 1516 
L 816 1516 
Q 847 969 1125 678 
Q 1403 388 1819 388 
Q 2128 388 2347 550 
Q 2566 713 2694 1069 
z
M 847 1978 
L 2700 1978 
Q 2663 2397 2488 2606 
Q 2219 2931 1791 2931 
Q 1403 2931 1139 2672 
Q 875 2413 847 1978 
z
M 1454 3731 
L 1869 4606 
L 2607 4606 
L 1919 3731 
L 1454 3731 
z
" id="ArialMT-e9" transform="scale(0.015625)"/>
      <path d="M 569 0 
L 569 641 
L 1209 641 
L 1209 0 
Q 1209 -353 1084 -570 
Q 959 -788 688 -906 
L 531 -666 
Q 709 -588 793 -436 
Q 878 -284 888 0 
L 569 0 
z
" id="ArialMT-2c" transform="scale(0.015625)"/>
      <path d="M 422 -1272 
L 422 3319 
L 934 3319 
L 934 2888 
Q 1116 3141 1344 3267 
Q 1572 3394 1897 3394 
Q 2322 3394 2647 3175 
Q 2972 2956 3137 2557 
Q 3303 2159 3303 1684 
Q 3303 1175 3120 767 
Q 2938 359 2589 142 
Q 2241 -75 1856 -75 
Q 1575 -75 1351 44 
Q 1128 163 984 344 
L 984 -1272 
L 422 -1272 
z
M 931 1641 
Q 931 1000 1190 694 
Q 1450 388 1819 388 
Q 2194 388 2461 705 
Q 2728 1022 2728 1688 
Q 2728 2322 2467 2637 
Q 2206 2953 1844 2953 
Q 1484 2953 1207 2617 
Q 931 2281 931 1641 
z
" id="ArialMT-70" transform="scale(0.015625)"/>
      <path d="M 47 0 
L 1259 1725 
L 138 3319 
L 841 3319 
L 1350 2541 
Q 1494 2319 1581 2169 
Q 1719 2375 1834 2534 
L 2394 3319 
L 3066 3319 
L 1919 1756 
L 3153 0 
L 2463 0 
L 1781 1031 
L 1600 1309 
L 728 0 
L 47 0 
z
" id="ArialMT-78" transform="scale(0.015625)"/>
      <path d="M 288 1472 
L 859 1522 
Q 900 1178 1048 958 
Q 1197 738 1509 602 
Q 1822 466 2213 466 
Q 2559 466 2825 569 
Q 3091 672 3220 851 
Q 3350 1031 3350 1244 
Q 3350 1459 3225 1620 
Q 3100 1781 2813 1891 
Q 2628 1963 1997 2114 
Q 1366 2266 1113 2400 
Q 784 2572 623 2826 
Q 463 3081 463 3397 
Q 463 3744 659 4045 
Q 856 4347 1234 4503 
Q 1613 4659 2075 4659 
Q 2584 4659 2973 4495 
Q 3363 4331 3572 4012 
Q 3781 3694 3797 3291 
L 3216 3247 
Q 3169 3681 2898 3903 
Q 2628 4125 2100 4125 
Q 1550 4125 1298 3923 
Q 1047 3722 1047 3438 
Q 1047 3191 1225 3031 
Q 1400 2872 2139 2705 
Q 2878 2538 3153 2413 
Q 3553 2228 3743 1945 
Q 3934 1663 3934 1294 
Q 3934 928 3725 604 
Q 3516 281 3123 101 
Q 2731 -78 2241 -78 
Q 1619 -78 1198 103 
Q 778 284 539 648 
Q 300 1013 288 1472 
z
" id="ArialMT-53" transform="scale(0.015625)"/>
      <path d="M 2588 409 
Q 2275 144 1986 34 
Q 1697 -75 1366 -75 
Q 819 -75 525 192 
Q 231 459 231 875 
Q 231 1119 342 1320 
Q 453 1522 633 1644 
Q 813 1766 1038 1828 
Q 1203 1872 1538 1913 
Q 2219 1994 2541 2106 
Q 2544 2222 2544 2253 
Q 2544 2597 2384 2738 
Q 2169 2928 1744 2928 
Q 1347 2928 1158 2789 
Q 969 2650 878 2297 
L 328 2372 
Q 403 2725 575 2942 
Q 747 3159 1072 3276 
Q 1397 3394 1825 3394 
Q 2250 3394 2515 3294 
Q 2781 3194 2906 3042 
Q 3031 2891 3081 2659 
Q 3109 2516 3109 2141 
L 3109 1391 
Q 3109 606 3145 398 
Q 3181 191 3288 0 
L 2700 0 
Q 2613 175 2588 409 
z
M 2541 1666 
Q 2234 1541 1622 1453 
Q 1275 1403 1131 1340 
Q 988 1278 909 1158 
Q 831 1038 831 891 
Q 831 666 1001 516 
Q 1172 366 1500 366 
Q 1825 366 2078 508 
Q 2331 650 2450 897 
Q 2541 1088 2541 1459 
L 2541 1666 
z
M 718 3809 
Q 715 4134 896 4328 
Q 1074 4522 1352 4522 
Q 1546 4522 1880 4353 
Q 2065 4259 2174 4259 
Q 2274 4259 2327 4314 
Q 2380 4369 2402 4531 
L 2809 4531 
Q 2799 4175 2629 3997 
Q 2459 3819 2196 3819 
Q 1999 3819 1677 3994 
Q 1468 4106 1371 4106 
Q 1265 4106 1199 4031 
Q 1130 3956 1134 3809 
L 718 3809 
z
" id="ArialMT-e3" transform="scale(0.015625)"/>
      <path d="M 494 0 
L 494 4581 
L 2222 4581 
Q 2678 4581 2919 4538 
Q 3256 4481 3484 4323 
Q 3713 4166 3852 3881 
Q 3991 3597 3991 3256 
Q 3991 2672 3619 2267 
Q 3247 1863 2275 1863 
L 1100 1863 
L 1100 0 
L 494 0 
z
M 1100 2403 
L 2284 2403 
Q 2872 2403 3119 2622 
Q 3366 2841 3366 3238 
Q 3366 3525 3220 3729 
Q 3075 3934 2838 4000 
Q 2684 4041 2272 4041 
L 1100 4041 
L 1100 2403 
z
" id="ArialMT-50" transform="scale(0.015625)"/>
      <path d="M 203 1375 
L 203 1941 
L 1931 1941 
L 1931 1375 
L 203 1375 
z
" id="ArialMT-2d" transform="scale(0.015625)"/>
     </defs>
     <use xlink:href="#ArialMT-45"/>
     <use x="66.699219" xlink:href="#ArialMT-73"/>
     <use x="116.699219" xlink:href="#ArialMT-63"/>
     <use x="166.699219" xlink:href="#ArialMT-6f"/>
     <use x="222.314453" xlink:href="#ArialMT-6c"/>
     <use x="244.53125" xlink:href="#ArialMT-61"/>
     <use x="300.146484" xlink:href="#ArialMT-72"/>
     <use x="333.447266" xlink:href="#ArialMT-69"/>
     <use x="355.664062" xlink:href="#ArialMT-64"/>
     <use x="411.279297" xlink:href="#ArialMT-61"/>
     <use x="466.894531" xlink:href="#ArialMT-64"/>
     <use x="522.509766" xlink:href="#ArialMT-65"/>
     <use x="578.125" xlink:href="#ArialMT-20"/>
     <use x="605.908203" xlink:href="#ArialMT-6c"/>
     <use x="628.125" xlink:href="#ArialMT-ed"/>
     <use x="655.908203" xlink:href="#ArialMT-71"/>
     <use x="711.523438" xlink:href="#ArialMT-75"/>
     <use x="767.138672" xlink:href="#ArialMT-69"/>
     <use x="789.355469" xlink:href="#ArialMT-64"/>
     <use x="844.970703" xlink:href="#ArialMT-61"/>
     <use x="900.585938" xlink:href="#ArialMT-20"/>
     <use x="928.369141" xlink:href="#ArialMT-45"/>
     <use x="995.068359" xlink:href="#ArialMT-6e"/>
     <use x="1050.683594" xlink:href="#ArialMT-73"/>
     <use x="1100.683594" xlink:href="#ArialMT-69"/>
     <use x="1122.900391" xlink:href="#ArialMT-6e"/>
     <use x="1178.515625" xlink:href="#ArialMT-6f"/>
     <use x="1234.130859" xlink:href="#ArialMT-20"/>
     <use x="1261.914062" xlink:href="#ArialMT-4d"/>
     <use x="1345.214844" xlink:href="#ArialMT-e9"/>
     <use x="1400.830078" xlink:href="#ArialMT-64"/>
     <use x="1456.445312" xlink:href="#ArialMT-69"/>
     <use x="1478.662109" xlink:href="#ArialMT-6f"/>
     <use x="1534.277344" xlink:href="#ArialMT-2c"/>
     <use x="1562.060547" xlink:href="#ArialMT-20"/>
     <use x="1589.84375" xlink:href="#ArialMT-70"/>
     <use x="1645.458984" xlink:href="#ArialMT-6f"/>
     <use x="1701.074219" xlink:href="#ArialMT-72"/>
     <use x="1734.375" xlink:href="#ArialMT-20"/>
     <use x="1762.158203" xlink:href="#ArialMT-73"/>
     <use x="1812.158203" xlink:href="#ArialMT-65"/>
     <use x="1867.773438" xlink:href="#ArialMT-78"/>
     <use x="1917.773438" xlink:href="#ArialMT-6f"/>
     <use x="1973.388672" xlink:href="#ArialMT-2c"/>
     <use x="2001.171875" xlink:href="#ArialMT-20"/>
     <use x="2028.955078" xlink:href="#ArialMT-53"/>
     <use x="2095.654297" xlink:href="#ArialMT-e3"/>
     <use x="2151.269531" xlink:href="#ArialMT-6f"/>
     <use x="2206.884766" xlink:href="#ArialMT-20"/>
     <use x="2234.667969" xlink:href="#ArialMT-50"/>
     <use x="2301.367188" xlink:href="#ArialMT-61"/>
     <use x="2356.982422" xlink:href="#ArialMT-75"/>
     <use x="2412.597656" xlink:href="#ArialMT-6c"/>
     <use x="2434.814453" xlink:href="#ArialMT-6f"/>
     <use x="2490.429688" xlink:href="#ArialMT-2c"/>
     <use x="2518.212891" xlink:href="#ArialMT-20"/>
     <use x="2545.996094" xlink:href="#ArialMT-32"/>
     <use x="2601.611328" xlink:href="#ArialMT-30"/>
     <use x="2657.226562" xlink:href="#ArialMT-31"/>
     <use x="2712.841797" xlink:href="#ArialMT-32"/>
     <use x="2768.457031" xlink:href="#ArialMT-2d"/>
     <use x="2801.757812" xlink:href="#ArialMT-32"/>
     <use x="2857.373047" xlink:href="#ArialMT-30"/>
     <use x="2912.988281" xlink:href="#ArialMT-32"/>
     <use x="2968.603516" xlink:href="#ArialMT-31"/>
    </g>
   </g>
   <g id="legend_1">
    <g id="patch_7">
     <path d="M 955.396562 117.679688 
L 1029.1 117.679688 
Q 1031.3 117.679688 1031.3 115.479687 
L 1031.3 85.46 
Q 1031.3 83.26 1029.1 83.26 
L 955.396562 83.26 
Q 953.196562 83.26 953.196562 85.46 
L 953.196562 115.479687 
Q 953.196562 117.679688 955.396562 117.679688 
z
" style="fill:#eaeaf2;opacity:0.8;stroke:#cccccc;stroke-linejoin:miter;"/>
    </g>
    <g id="line2d_92">
     <path d="M 957.596562 91.683594 
L 979.596562 91.683594 
" style="fill:none;stroke:#4c72b0;stroke-linecap:round;stroke-width:3;"/>
    </g>
    <g id="line2d_93">
     <g>
      <use style="fill:#4c72b0;stroke:#4c72b0;" x="968.596562" xlink:href="#m579b21832c" y="91.683594"/>
     </g>
    </g>
    <g id="text_27">
     <!-- Homem -->
     <g style="fill:#262626;" transform="translate(988.396562 95.533594)scale(0.11 -0.11)">
      <defs>
       <path d="M 513 0 
L 513 4581 
L 1119 4581 
L 1119 2700 
L 3500 2700 
L 3500 4581 
L 4106 4581 
L 4106 0 
L 3500 0 
L 3500 2159 
L 1119 2159 
L 1119 0 
L 513 0 
z
" id="ArialMT-48" transform="scale(0.015625)"/>
       <path d="M 422 0 
L 422 3319 
L 925 3319 
L 925 2853 
Q 1081 3097 1340 3245 
Q 1600 3394 1931 3394 
Q 2300 3394 2536 3241 
Q 2772 3088 2869 2813 
Q 3263 3394 3894 3394 
Q 4388 3394 4653 3120 
Q 4919 2847 4919 2278 
L 4919 0 
L 4359 0 
L 4359 2091 
Q 4359 2428 4304 2576 
Q 4250 2725 4106 2815 
Q 3963 2906 3769 2906 
Q 3419 2906 3187 2673 
Q 2956 2441 2956 1928 
L 2956 0 
L 2394 0 
L 2394 2156 
Q 2394 2531 2256 2718 
Q 2119 2906 1806 2906 
Q 1569 2906 1367 2781 
Q 1166 2656 1075 2415 
Q 984 2175 984 1722 
L 984 0 
L 422 0 
z
" id="ArialMT-6d" transform="scale(0.015625)"/>
      </defs>
      <use xlink:href="#ArialMT-48"/>
      <use x="72.216797" xlink:href="#ArialMT-6f"/>
      <use x="127.832031" xlink:href="#ArialMT-6d"/>
      <use x="211.132812" xlink:href="#ArialMT-65"/>
      <use x="266.748047" xlink:href="#ArialMT-6d"/>
     </g>
    </g>
    <g id="line2d_94">
     <path d="M 957.596562 107.243438 
L 979.596562 107.243438 
" style="fill:none;stroke:#dd8452;stroke-linecap:round;stroke-width:3;"/>
    </g>
    <g id="line2d_95">
     <g>
      <use style="fill:#dd8452;stroke:#dd8452;" x="968.596562" xlink:href="#mb52bb38345" y="107.243438"/>
     </g>
    </g>
    <g id="text_28">
     <!-- Mulher -->
     <g style="fill:#262626;" transform="translate(988.396562 111.093438)scale(0.11 -0.11)">
      <defs>
       <path d="M 422 0 
L 422 4581 
L 984 4581 
L 984 2938 
Q 1378 3394 1978 3394 
Q 2347 3394 2619 3248 
Q 2891 3103 3008 2847 
Q 3125 2591 3125 2103 
L 3125 0 
L 2563 0 
L 2563 2103 
Q 2563 2525 2380 2717 
Q 2197 2909 1863 2909 
Q 1613 2909 1392 2779 
Q 1172 2650 1078 2428 
Q 984 2206 984 1816 
L 984 0 
L 422 0 
z
" id="ArialMT-68" transform="scale(0.015625)"/>
      </defs>
      <use xlink:href="#ArialMT-4d"/>
      <use x="83.300781" xlink:href="#ArialMT-75"/>
      <use x="138.916016" xlink:href="#ArialMT-6c"/>
      <use x="161.132812" xlink:href="#ArialMT-68"/>
      <use x="216.748047" xlink:href="#ArialMT-65"/>
      <use x="272.363281" xlink:href="#ArialMT-72"/>
     </g>
    </g>
   </g>
  </g>
 </g>
 <defs>
  <clipPath id="p217bc29dc5">
   <rect height="489.24" width="892.8" x="144" y="77.76"/>
  </clipPath>
 </defs>
</svg>
